M48
; DRILL file KiCad 10.0.3 date 2026-06-26T21:25:12
; FORMAT={-:-/ absolute / metric / decimal}
; #@! TF.CreationDate,2026-06-26T21:25:12-04:00
; #@! TF.GenerationSoftware,Kicad,Pcbnew,10.0.3
; #@! TF.FileFunction,Plated,1,2,PTH
FMAT,2
METRIC
; #@! TA.AperFunction,Plated,PTH,ViaDrill
T1C0.300
; #@! TA.AperFunction,Plated,PTH,ComponentDrill
T2C0.750
%
G90
G05
T1
X36.44Y-98.35
X36.86Y-92.47
X38.42Y-95.36
X47.08Y-76.45
X48.96Y-76.66
X50.31Y-73.25
X53.39Y-88.86
X55.44Y-90.52
X59.23Y-109.13
X62.18Y-98.06
X66.28Y-91.56
X66.95Y-106.13
X68.0Y-78.77
X68.94Y-106.62
X69.83Y-91.83
X71.99Y-91.94
X72.81Y-78.73
X73.25Y-76.27
X73.92Y-78.35
X74.4Y-102.99
X75.03Y-109.11
X75.79Y-76.58
X75.99Y-108.345
X76.34Y-79.76
X77.39Y-104.16
X90.59Y-83.11
X96.01Y-97.1
X98.08Y-99.6
X99.95Y-101.46
X101.84Y-92.86
X111.14Y-112.47
X113.3Y-114.63
X115.42Y-81.48
X116.11Y-94.52
X116.23Y-95.93
T2
X58.35Y-115.78
X60.35Y-115.78
M30
