%TF.GenerationSoftware,KiCad,Pcbnew,10.0.3*%
%TF.CreationDate,2026-06-26T21:25:22-04:00*%
%TF.ProjectId,kiwiigo,6b697769-6967-46f2-9e6b-696361645f70,rev?*%
%TF.SameCoordinates,Original*%
%TF.FileFunction,Soldermask,Bot*%
%TF.FilePolarity,Negative*%
%FSLAX46Y46*%
G04 Gerber Fmt 4.6, Leading zero omitted, Abs format (unit mm)*
G04 Created by KiCad (PCBNEW 10.0.3) date 2026-06-26 21:25:22*
%MOMM*%
%LPD*%
G01*
G04 APERTURE LIST*
G04 Aperture macros list*
%AMRoundRect*
0 Rectangle with rounded corners*
0 $1 Rounding radius*
0 $2 $3 $4 $5 $6 $7 $8 $9 X,Y pos of 4 corners*
0 Add a 4 corners polygon primitive as box body*
4,1,4,$2,$3,$4,$5,$6,$7,$8,$9,$2,$3,0*
0 Add four circle primitives for the rounded corners*
1,1,$1+$1,$2,$3*
1,1,$1+$1,$4,$5*
1,1,$1+$1,$6,$7*
1,1,$1+$1,$8,$9*
0 Add four rect primitives between the rounded corners*
20,1,$1+$1,$2,$3,$4,$5,0*
20,1,$1+$1,$4,$5,$6,$7,0*
20,1,$1+$1,$6,$7,$8,$9,0*
20,1,$1+$1,$8,$9,$2,$3,0*%
%AMFreePoly0*
4,1,37,0.800000,0.796148,0.878414,0.796148,1.032228,0.765552,1.177117,0.705537,1.307515,0.618408,1.418408,0.507515,1.505537,0.377117,1.565552,0.232228,1.596148,0.078414,1.596148,-0.078414,1.565552,-0.232228,1.505537,-0.377117,1.418408,-0.507515,1.307515,-0.618408,1.177117,-0.705537,1.032228,-0.765552,0.878414,-0.796148,0.800000,-0.796148,0.800000,-0.800000,-1.400000,-0.800000,
-1.403843,-0.796157,-1.439018,-0.796157,-1.511114,-0.766294,-1.566294,-0.711114,-1.596157,-0.639018,-1.596157,-0.603843,-1.600000,-0.600000,-1.600000,0.600000,-1.596157,0.603843,-1.596157,0.639018,-1.566294,0.711114,-1.511114,0.766294,-1.439018,0.796157,-1.403843,0.796157,-1.400000,0.800000,0.800000,0.800000,0.800000,0.796148,0.800000,0.796148,$1*%
%AMFreePoly1*
4,1,37,1.403843,0.796157,1.439018,0.796157,1.511114,0.766294,1.566294,0.711114,1.596157,0.639018,1.596157,0.603843,1.600000,0.600000,1.600000,-0.600000,1.596157,-0.603843,1.596157,-0.639018,1.566294,-0.711114,1.511114,-0.766294,1.439018,-0.796157,1.403843,-0.796157,1.400000,-0.800000,-0.800000,-0.800000,-0.800000,-0.796148,-0.878414,-0.796148,-1.032228,-0.765552,-1.177117,-0.705537,
-1.307515,-0.618408,-1.418408,-0.507515,-1.505537,-0.377117,-1.565552,-0.232228,-1.596148,-0.078414,-1.596148,0.078414,-1.565552,0.232228,-1.505537,0.377117,-1.418408,0.507515,-1.307515,0.618408,-1.177117,0.705537,-1.032228,0.765552,-0.878414,0.796148,-0.800000,0.796148,-0.800000,0.800000,1.400000,0.800000,1.403843,0.796157,1.403843,0.796157,$1*%
%AMFreePoly2*
4,1,37,1.600000,0.796148,1.678414,0.796148,1.832228,0.765552,1.977117,0.705537,2.107515,0.618408,2.218408,0.507515,2.305537,0.377117,2.365552,0.232228,2.396148,0.078414,2.396148,-0.078414,2.365552,-0.232228,2.305537,-0.377117,2.218408,-0.507515,2.107515,-0.618408,1.977117,-0.705537,1.832228,-0.765552,1.678414,-0.796148,1.600000,-0.796148,1.600000,-0.800000,-0.600000,-0.800000,
-0.603843,-0.796157,-0.639018,-0.796157,-0.711114,-0.766294,-0.766294,-0.711114,-0.796157,-0.639018,-0.796157,-0.603843,-0.800000,-0.600000,-0.800000,0.600000,-0.796157,0.603843,-0.796157,0.639018,-0.766294,0.711114,-0.711114,0.766294,-0.639018,0.796157,-0.603843,0.796157,-0.600000,0.800000,1.600000,0.800000,1.600000,0.796148,1.600000,0.796148,$1*%
G04 Aperture macros list end*
%ADD10C,3.200000*%
%ADD11RoundRect,0.250000X-0.350000X-0.625000X0.350000X-0.625000X0.350000X0.625000X-0.350000X0.625000X0*%
%ADD12O,1.200000X1.750000*%
%ADD13C,2.200000*%
%ADD14C,1.850000*%
%ADD15FreePoly0,90.000000*%
%ADD16RoundRect,0.800000X0.000010X-0.800000X0.000010X0.800000X-0.000010X0.800000X-0.000010X-0.800000X0*%
%ADD17FreePoly1,90.000000*%
%ADD18RoundRect,0.800000X-0.800000X-0.000010X0.800000X-0.000010X0.800000X0.000010X-0.800000X0.000010X0*%
%ADD19FreePoly2,180.000000*%
G04 APERTURE END LIST*
D10*
%TO.C,REF\u002A\u002A*%
X96580000Y-114480000D03*
%TD*%
%TO.C,REF\u002A\u002A*%
X42530000Y-95700000D03*
%TD*%
D11*
%TO.C,J1*%
X58350000Y-115780000D03*
D12*
X60350000Y-115780000D03*
%TD*%
D10*
%TO.C,REF\u002A\u002A*%
X96580000Y-77460000D03*
%TD*%
D13*
%TO.C,A1*%
X128630000Y-98875000D03*
D14*
X125600000Y-98575000D03*
X125600000Y-93725000D03*
D13*
X128630000Y-93425000D03*
D15*
X128760000Y-105840000D03*
D16*
X126220000Y-105840000D03*
D17*
X123680000Y-105840000D03*
D16*
X121140000Y-105840000D03*
X118600000Y-105840000D03*
X116060000Y-105840000D03*
X113520000Y-105840000D03*
D17*
X110980000Y-105840000D03*
D16*
X108440000Y-105840000D03*
X105900000Y-105840000D03*
X103360000Y-105840000D03*
X100820000Y-105840000D03*
D17*
X98280000Y-105840000D03*
D16*
X95740000Y-105840000D03*
X93200000Y-105840000D03*
X90660000Y-105840000D03*
X88120000Y-105840000D03*
D17*
X85580000Y-105840000D03*
D16*
X83040000Y-105840000D03*
X80500000Y-105840000D03*
X80500000Y-86460000D03*
X83040000Y-86460000D03*
D15*
X85580000Y-86460000D03*
D16*
X88120000Y-86460000D03*
X90660000Y-86460000D03*
X93200000Y-86460000D03*
X95740000Y-86460000D03*
D15*
X98280000Y-86460000D03*
D16*
X100820000Y-86460000D03*
X103360000Y-86460000D03*
X105900000Y-86460000D03*
X108440000Y-86460000D03*
D15*
X110980000Y-86460000D03*
D16*
X113520000Y-86460000D03*
X116060000Y-86460000D03*
X118600000Y-86460000D03*
X121140000Y-86460000D03*
D15*
X123680000Y-86460000D03*
D16*
X126220000Y-86460000D03*
X128760000Y-86460000D03*
D18*
X79930000Y-98690000D03*
D19*
X80730000Y-96150000D03*
D18*
X79930000Y-93610000D03*
%TD*%
M02*
