%TF.GenerationSoftware,KiCad,Pcbnew,10.0.3*%
%TF.CreationDate,2026-06-26T21:25:22-04:00*%
%TF.ProjectId,kiwiigo,6b697769-6967-46f2-9e6b-696361645f70,rev?*%
%TF.SameCoordinates,Original*%
%TF.FileFunction,Paste,Bot*%
%TF.FilePolarity,Positive*%
%FSLAX46Y46*%
G04 Gerber Fmt 4.6, Leading zero omitted, Abs format (unit mm)*
G04 Created by KiCad (PCBNEW 10.0.3) date 2026-06-26 21:25:22*
%MOMM*%
%LPD*%
G01*
G04 APERTURE LIST*
%ADD10R,2.200000X3.800000*%
%ADD11R,3.800000X2.200000*%
G04 APERTURE END LIST*
D10*
%TO.C,A1*%
X80500000Y-105840000D03*
X83040000Y-105840000D03*
X85580000Y-105840000D03*
X88120000Y-105840000D03*
X90660000Y-105840000D03*
X93200000Y-105840000D03*
X95740000Y-105840000D03*
X98280000Y-105840000D03*
X100820000Y-105840000D03*
X103360000Y-105840000D03*
X105900000Y-105840000D03*
X108440000Y-105840000D03*
X110980000Y-105840000D03*
X113520000Y-105840000D03*
X116060000Y-105840000D03*
X118600000Y-105840000D03*
X121140000Y-105840000D03*
X123680000Y-105840000D03*
X126220000Y-105840000D03*
X128760000Y-105840000D03*
D11*
X79930000Y-98690000D03*
X79930000Y-96150000D03*
X79930000Y-93610000D03*
D10*
X80500000Y-86460000D03*
X83040000Y-86460000D03*
X85580000Y-86460000D03*
X88120000Y-86460000D03*
X90660000Y-86460000D03*
X93200000Y-86460000D03*
X95740000Y-86460000D03*
X98280000Y-86460000D03*
X100820000Y-86460000D03*
X103360000Y-86460000D03*
X105900000Y-86460000D03*
X108440000Y-86460000D03*
X110980000Y-86460000D03*
X113520000Y-86460000D03*
X116060000Y-86460000D03*
X118600000Y-86460000D03*
X121140000Y-86460000D03*
X123680000Y-86460000D03*
X126220000Y-86460000D03*
X128760000Y-86460000D03*
%TD*%
M02*
