%TF.GenerationSoftware,KiCad,Pcbnew,10.0.3*%
%TF.CreationDate,2026-06-26T21:25:21-04:00*%
%TF.ProjectId,kiwiigo,6b697769-6967-46f2-9e6b-696361645f70,rev?*%
%TF.SameCoordinates,Original*%
%TF.FileFunction,Copper,L2,Bot*%
%TF.FilePolarity,Positive*%
%FSLAX46Y46*%
G04 Gerber Fmt 4.6, Leading zero omitted, Abs format (unit mm)*
G04 Created by KiCad (PCBNEW 10.0.3) date 2026-06-26 21:25:21*
%MOMM*%
%LPD*%
G01*
G04 APERTURE LIST*
G04 Aperture macros list*
%AMRoundRect*
0 Rectangle with rounded corners*
0 $1 Rounding radius*
0 $2 $3 $4 $5 $6 $7 $8 $9 X,Y pos of 4 corners*
0 Add a 4 corners polygon primitive as box body*
4,1,4,$2,$3,$4,$5,$6,$7,$8,$9,$2,$3,0*
0 Add four circle primitives for the rounded corners*
1,1,$1+$1,$2,$3*
1,1,$1+$1,$4,$5*
1,1,$1+$1,$6,$7*
1,1,$1+$1,$8,$9*
0 Add four rect primitives between the rounded corners*
20,1,$1+$1,$2,$3,$4,$5,0*
20,1,$1+$1,$4,$5,$6,$7,0*
20,1,$1+$1,$6,$7,$8,$9,0*
20,1,$1+$1,$8,$9,$2,$3,0*%
%AMFreePoly0*
4,1,37,0.800000,0.796148,0.878414,0.796148,1.032228,0.765552,1.177117,0.705537,1.307515,0.618408,1.418408,0.507515,1.505537,0.377117,1.565552,0.232228,1.596148,0.078414,1.596148,-0.078414,1.565552,-0.232228,1.505537,-0.377117,1.418408,-0.507515,1.307515,-0.618408,1.177117,-0.705537,1.032228,-0.765552,0.878414,-0.796148,0.800000,-0.796148,0.800000,-0.800000,-1.400000,-0.800000,
-1.403843,-0.796157,-1.439018,-0.796157,-1.511114,-0.766294,-1.566294,-0.711114,-1.596157,-0.639018,-1.596157,-0.603843,-1.600000,-0.600000,-1.600000,0.600000,-1.596157,0.603843,-1.596157,0.639018,-1.566294,0.711114,-1.511114,0.766294,-1.439018,0.796157,-1.403843,0.796157,-1.400000,0.800000,0.800000,0.800000,0.800000,0.796148,0.800000,0.796148,$1*%
%AMFreePoly1*
4,1,37,1.403843,0.796157,1.439018,0.796157,1.511114,0.766294,1.566294,0.711114,1.596157,0.639018,1.596157,0.603843,1.600000,0.600000,1.600000,-0.600000,1.596157,-0.603843,1.596157,-0.639018,1.566294,-0.711114,1.511114,-0.766294,1.439018,-0.796157,1.403843,-0.796157,1.400000,-0.800000,-0.800000,-0.800000,-0.800000,-0.796148,-0.878414,-0.796148,-1.032228,-0.765552,-1.177117,-0.705537,
-1.307515,-0.618408,-1.418408,-0.507515,-1.505537,-0.377117,-1.565552,-0.232228,-1.596148,-0.078414,-1.596148,0.078414,-1.565552,0.232228,-1.505537,0.377117,-1.418408,0.507515,-1.307515,0.618408,-1.177117,0.705537,-1.032228,0.765552,-0.878414,0.796148,-0.800000,0.796148,-0.800000,0.800000,1.400000,0.800000,1.403843,0.796157,1.403843,0.796157,$1*%
%AMFreePoly2*
4,1,37,1.600000,0.796148,1.678414,0.796148,1.832228,0.765552,1.977117,0.705537,2.107515,0.618408,2.218408,0.507515,2.305537,0.377117,2.365552,0.232228,2.396148,0.078414,2.396148,-0.078414,2.365552,-0.232228,2.305537,-0.377117,2.218408,-0.507515,2.107515,-0.618408,1.977117,-0.705537,1.832228,-0.765552,1.678414,-0.796148,1.600000,-0.796148,1.600000,-0.800000,-0.600000,-0.800000,
-0.603843,-0.796157,-0.639018,-0.796157,-0.711114,-0.766294,-0.766294,-0.711114,-0.796157,-0.639018,-0.796157,-0.603843,-0.800000,-0.600000,-0.800000,0.600000,-0.796157,0.603843,-0.796157,0.639018,-0.766294,0.711114,-0.711114,0.766294,-0.639018,0.796157,-0.603843,0.796157,-0.600000,0.800000,1.600000,0.800000,1.600000,0.796148,1.600000,0.796148,$1*%
G04 Aperture macros list end*
%TA.AperFunction,ComponentPad*%
%ADD10RoundRect,0.250000X-0.350000X-0.625000X0.350000X-0.625000X0.350000X0.625000X-0.350000X0.625000X0*%
%TD*%
%TA.AperFunction,ComponentPad*%
%ADD11O,1.200000X1.750000*%
%TD*%
%TA.AperFunction,SMDPad,CuDef*%
%ADD12FreePoly0,90.000000*%
%TD*%
%TA.AperFunction,SMDPad,CuDef*%
%ADD13RoundRect,0.800000X0.000010X-0.800000X0.000010X0.800000X-0.000010X0.800000X-0.000010X-0.800000X0*%
%TD*%
%TA.AperFunction,SMDPad,CuDef*%
%ADD14FreePoly1,90.000000*%
%TD*%
%TA.AperFunction,SMDPad,CuDef*%
%ADD15RoundRect,0.800000X-0.800000X-0.000010X0.800000X-0.000010X0.800000X0.000010X-0.800000X0.000010X0*%
%TD*%
%TA.AperFunction,SMDPad,CuDef*%
%ADD16FreePoly2,180.000000*%
%TD*%
%TA.AperFunction,ViaPad*%
%ADD17C,0.600000*%
%TD*%
%TA.AperFunction,Conductor*%
%ADD18C,0.500000*%
%TD*%
%TA.AperFunction,Conductor*%
%ADD19C,0.200000*%
%TD*%
G04 APERTURE END LIST*
D10*
%TO.P,J1,1,Pin_1_1*%
%TO.N,/VBAT*%
X58350000Y-115780000D03*
D11*
%TO.P,J1,2,Pin_2_2*%
%TO.N,GND*%
X60350000Y-115780000D03*
%TD*%
D12*
%TO.P,A1,1,GPIO0_1*%
%TO.N,/RTC_SDA*%
X128760000Y-105840000D03*
D13*
%TO.P,A1,2,GPIO1_2*%
%TO.N,/RTC_SCL*%
X126220000Y-105840000D03*
D14*
%TO.P,A1,3,GND_3*%
%TO.N,GND*%
X123680000Y-105840000D03*
D13*
%TO.P,A1,4,GPIO2_4*%
%TO.N,/GPS_PWR_EN*%
X121140000Y-105840000D03*
%TO.P,A1,5,GPIO3_5*%
%TO.N,unconnected-(A1-GPIO3-Pad5)*%
X118600000Y-105840000D03*
%TO.P,A1,6,GPIO4_6*%
%TO.N,/GPS_TX*%
X116060000Y-105840000D03*
%TO.P,A1,7,GPIO5_7*%
%TO.N,/GPS_RX*%
X113520000Y-105840000D03*
D14*
%TO.P,A1,8,GND_8*%
%TO.N,GND*%
X110980000Y-105840000D03*
D13*
%TO.P,A1,9,GPIO6_9*%
%TO.N,unconnected-(A1-GPIO6-Pad9)*%
X108440000Y-105840000D03*
%TO.P,A1,10,GPIO7_10*%
%TO.N,unconnected-(A1-GPIO7-Pad10)*%
X105900000Y-105840000D03*
%TO.P,A1,11,GPIO8_11*%
%TO.N,unconnected-(A1-GPIO8-Pad11)*%
X103360000Y-105840000D03*
%TO.P,A1,12,GPIO9_12*%
%TO.N,unconnected-(A1-GPIO9-Pad12)*%
X100820000Y-105840000D03*
D14*
%TO.P,A1,13,GND_13*%
%TO.N,GND*%
X98280000Y-105840000D03*
D13*
%TO.P,A1,14,GPIO10_14*%
%TO.N,/RGB_GLOW*%
X95740000Y-105840000D03*
%TO.P,A1,15,GPIO11_15*%
%TO.N,/LoRa_RST*%
X93200000Y-105840000D03*
%TO.P,A1,16,GPIO12_16*%
%TO.N,unconnected-(A1-GPIO12-Pad16)*%
X90660000Y-105840000D03*
%TO.P,A1,17,GPIO13_17*%
%TO.N,unconnected-(A1-GPIO13-Pad17)*%
X88120000Y-105840000D03*
D14*
%TO.P,A1,18,GND_18*%
%TO.N,GND*%
X85580000Y-105840000D03*
D13*
%TO.P,A1,19,GPIO14_19*%
%TO.N,unconnected-(A1-GPIO14-Pad19)*%
X83040000Y-105840000D03*
%TO.P,A1,20,GPIO15_20*%
%TO.N,unconnected-(A1-GPIO15-Pad20)*%
X80500000Y-105840000D03*
%TO.P,A1,21,GPIO16_21*%
%TO.N,/LoRa_CS*%
X80500000Y-86460000D03*
%TO.P,A1,22,GPIO17_22*%
%TO.N,/LoRa_MISO*%
X83040000Y-86460000D03*
D12*
%TO.P,A1,23,GND_23*%
%TO.N,GND*%
X85580000Y-86460000D03*
D13*
%TO.P,A1,24,GPIO18_24*%
%TO.N,/LoRa_SCK*%
X88120000Y-86460000D03*
%TO.P,A1,25,GPIO19_25*%
%TO.N,/LoRa_MOSI*%
X90660000Y-86460000D03*
%TO.P,A1,26,GPIO20_26*%
%TO.N,unconnected-(A1-GPIO20-Pad26)*%
X93200000Y-86460000D03*
%TO.P,A1,27,GPIO21_27*%
%TO.N,unconnected-(A1-GPIO21-Pad27)*%
X95740000Y-86460000D03*
D12*
%TO.P,A1,28,GND_28*%
%TO.N,GND*%
X98280000Y-86460000D03*
D13*
%TO.P,A1,29,GPIO22_29*%
%TO.N,unconnected-(A1-GPIO22-Pad29)*%
X100820000Y-86460000D03*
%TO.P,A1,30,RUN_30*%
%TO.N,/RTC_INT*%
X103360000Y-86460000D03*
%TO.P,A1,31,GPIO26_ADC0_31*%
%TO.N,unconnected-(A1-GPIO26_ADC0-Pad31)*%
X105900000Y-86460000D03*
%TO.P,A1,32,GPIO27_ADC1_32*%
%TO.N,unconnected-(A1-GPIO27_ADC1-Pad32)*%
X108440000Y-86460000D03*
D12*
%TO.P,A1,33,AGND_33*%
%TO.N,unconnected-(A1-AGND-Pad33)*%
X110980000Y-86460000D03*
D13*
%TO.P,A1,34,GPIO28_ADC2_34*%
%TO.N,unconnected-(A1-GPIO28_ADC2-Pad34)*%
X113520000Y-86460000D03*
%TO.P,A1,35,ADC_VREF_35*%
%TO.N,unconnected-(A1-ADC_VREF-Pad35)*%
X116060000Y-86460000D03*
%TO.P,A1,36,3V3_36*%
%TO.N,unconnected-(A1-3V3-Pad36)*%
X118600000Y-86460000D03*
%TO.P,A1,37,3V3_EN_37*%
%TO.N,unconnected-(A1-3V3_EN-Pad37)*%
X121140000Y-86460000D03*
D12*
%TO.P,A1,38,GND_38*%
%TO.N,GND*%
X123680000Y-86460000D03*
D13*
%TO.P,A1,39,VSYS_39*%
%TO.N,/VBAT*%
X126220000Y-86460000D03*
%TO.P,A1,40,VBUS_40*%
%TO.N,VBUS*%
X128760000Y-86460000D03*
D15*
%TO.P,A1,D1*%
%TO.N,N/C*%
X79930000Y-98690000D03*
D16*
%TO.P,A1,D2*%
X80730000Y-96150000D03*
D15*
%TO.P,A1,D3*%
X79930000Y-93610000D03*
%TD*%
D17*
%TO.N,/VBAT*%
X116110000Y-94520000D03*
%TO.N,/LoRa_CS*%
X72810000Y-78730000D03*
%TO.N,GND*%
X111140000Y-112470000D03*
X98080000Y-99600000D03*
X75790000Y-76580000D03*
X66950000Y-106130000D03*
X66280000Y-91560000D03*
X96010000Y-97100000D03*
X36440000Y-98350000D03*
X68940000Y-106620000D03*
X113300000Y-114630000D03*
X38420000Y-95360000D03*
X69830000Y-91830000D03*
X73250000Y-76270000D03*
X99950000Y-101460000D03*
%TO.N,/GPS_PWR_EN*%
X62180000Y-98060000D03*
%TO.N,/LoRa_RST*%
X68000000Y-78770000D03*
%TO.N,/RTC_SCL*%
X75990000Y-108345000D03*
%TO.N,/LoRa_SCK*%
X73920000Y-78350000D03*
%TO.N,/RTC_SDA*%
X75030000Y-109110000D03*
%TO.N,/GPS_TX*%
X50310000Y-73250000D03*
%TO.N,/LoRa_MISO*%
X76340000Y-79760000D03*
%TO.N,VBUS*%
X116230000Y-95930000D03*
X59230000Y-109130000D03*
X74400000Y-102990000D03*
%TO.N,/LoRa_MOSI*%
X90590000Y-83110000D03*
%TO.N,/RTC_INT*%
X101840000Y-92860000D03*
%TO.N,/RGB_GLOW*%
X115420000Y-81480000D03*
%TO.N,/GPS_RX*%
X48960000Y-76660000D03*
%TO.N,+3.3V*%
X77390000Y-104160000D03*
X36860000Y-92470000D03*
X55440000Y-90520000D03*
X71990000Y-91940000D03*
%TO.N,/GPS_3V3*%
X53390000Y-88860000D03*
X47080000Y-76450000D03*
%TD*%
%TO.N,/VBAT*%
D18*
X126220000Y-86460000D02*
X126220000Y-88650000D01*
X120350000Y-94520000D02*
X116110000Y-94520000D01*
X126220000Y-88650000D02*
X120350000Y-94520000D01*
D19*
X126220000Y-86460000D02*
X126220000Y-88060000D01*
D18*
X116110000Y-94520000D02*
X116050000Y-94520000D01*
%TO.N,/LoRa_CS*%
D19*
X72810000Y-78770000D02*
X72810000Y-78730000D01*
X80500000Y-86460000D02*
X72810000Y-78770000D01*
%TO.N,GND*%
X69560000Y-91560000D02*
X69830000Y-91830000D01*
X73250000Y-76270000D02*
X73360000Y-76380000D01*
X36440000Y-97340000D02*
X36440000Y-98350000D01*
X99950000Y-102200000D02*
X99730000Y-102420000D01*
X67065000Y-106245000D02*
X66950000Y-106130000D01*
X98280000Y-103860000D02*
X98280000Y-105840000D01*
X67065000Y-106265000D02*
X67065000Y-106245000D01*
X99730000Y-102420000D02*
X99720000Y-102420000D01*
X67420000Y-106620000D02*
X67065000Y-106265000D01*
X113300000Y-114630000D02*
X111140000Y-112470000D01*
X99950000Y-101460000D02*
X99950000Y-102200000D01*
X73360000Y-76380000D02*
X75590000Y-76380000D01*
X99720000Y-102420000D02*
X98280000Y-103860000D01*
X75590000Y-76380000D02*
X75790000Y-76580000D01*
X98080000Y-99600000D02*
X98080000Y-99530000D01*
X68940000Y-106620000D02*
X67420000Y-106620000D01*
X96010000Y-97460000D02*
X96010000Y-97100000D01*
X98080000Y-99530000D02*
X96010000Y-97460000D01*
X38420000Y-95360000D02*
X36440000Y-97340000D01*
X66280000Y-91560000D02*
X69560000Y-91560000D01*
%TO.N,/GPS_PWR_EN*%
X65815000Y-107745000D02*
X119235000Y-107745000D01*
X119235000Y-107745000D02*
X121140000Y-105840000D01*
X62180000Y-98060000D02*
X62180000Y-104110000D01*
X62180000Y-104110000D02*
X65815000Y-107745000D01*
%TO.N,/LoRa_RST*%
X93200000Y-103970000D02*
X68000000Y-78770000D01*
X93200000Y-105840000D02*
X93200000Y-103970000D01*
%TO.N,/RTC_SCL*%
X75995000Y-108350000D02*
X123710000Y-108350000D01*
X75990000Y-108345000D02*
X75995000Y-108350000D01*
X123710000Y-108350000D02*
X126220000Y-105840000D01*
%TO.N,/LoRa_SCK*%
X73920000Y-78350000D02*
X74030000Y-78350000D01*
X80200000Y-78420000D02*
X88120000Y-86340000D01*
X74100000Y-78420000D02*
X80200000Y-78420000D01*
X74030000Y-78350000D02*
X74100000Y-78420000D01*
X88120000Y-86340000D02*
X88120000Y-86460000D01*
%TO.N,/RTC_SDA*%
X128760000Y-105840000D02*
X125490000Y-109110000D01*
X125490000Y-109110000D02*
X75030000Y-109110000D01*
%TO.N,/GPS_TX*%
X119960000Y-89821471D02*
X119960000Y-84605786D01*
X108334214Y-72980000D02*
X50580000Y-72980000D01*
X114270000Y-104050000D02*
X114270000Y-95511471D01*
X116060000Y-105840000D02*
X114270000Y-104050000D01*
X50580000Y-72980000D02*
X50310000Y-73250000D01*
X119960000Y-84605786D02*
X108334214Y-72980000D01*
X114270000Y-95511471D02*
X119960000Y-89821471D01*
%TO.N,/LoRa_MISO*%
X76340000Y-79760000D02*
X83040000Y-86460000D01*
%TO.N,VBUS*%
D18*
X74400000Y-102990000D02*
X73150000Y-102990000D01*
X61869339Y-97310000D02*
X59710000Y-99469339D01*
X59710000Y-99469339D02*
X59710000Y-108650000D01*
X59710000Y-108650000D02*
X59230000Y-109130000D01*
X73150000Y-102990000D02*
X67470000Y-97310000D01*
X120890000Y-95930000D02*
X116230000Y-95930000D01*
X128760000Y-88060000D02*
X120890000Y-95930000D01*
X128760000Y-86460000D02*
X128760000Y-88060000D01*
X67470000Y-97310000D02*
X61869339Y-97310000D01*
%TO.N,/LoRa_MOSI*%
D19*
X90660000Y-83180000D02*
X90660000Y-86460000D01*
X90590000Y-83110000D02*
X90660000Y-83180000D01*
%TO.N,/RTC_INT*%
X103360000Y-91340000D02*
X103360000Y-86460000D01*
X101840000Y-92860000D02*
X103360000Y-91340000D01*
%TO.N,/RGB_GLOW*%
X95740000Y-102788529D02*
X104800000Y-93728529D01*
X95740000Y-105840000D02*
X95740000Y-102788529D01*
X106880000Y-82500000D02*
X114400000Y-82500000D01*
X114400000Y-82500000D02*
X115420000Y-81480000D01*
X104800000Y-84580000D02*
X106880000Y-82500000D01*
X104800000Y-93728529D02*
X104800000Y-84580000D01*
%TO.N,/GPS_RX*%
X54520000Y-73380000D02*
X51240000Y-76660000D01*
X113520000Y-105840000D02*
X113520000Y-95370000D01*
X108168529Y-73380000D02*
X54520000Y-73380000D01*
X113520000Y-95370000D02*
X117300000Y-91590000D01*
X51240000Y-76660000D02*
X48960000Y-76660000D01*
X117300000Y-91590000D02*
X117300000Y-82511471D01*
X117300000Y-82511471D02*
X108168529Y-73380000D01*
%TO.N,+3.3V*%
D18*
X73810000Y-92430000D02*
X73320000Y-91940000D01*
X73810000Y-100580000D02*
X73810000Y-92430000D01*
X36860000Y-92470000D02*
X37070000Y-92680000D01*
X39270000Y-92680000D02*
X41400000Y-90550000D01*
X77390000Y-104160000D02*
X73810000Y-100580000D01*
X55410000Y-90550000D02*
X55440000Y-90520000D01*
X37070000Y-92680000D02*
X39270000Y-92680000D01*
X41400000Y-90550000D02*
X55410000Y-90550000D01*
X73320000Y-91940000D02*
X71990000Y-91940000D01*
%TO.N,/GPS_3V3*%
X53390000Y-82760000D02*
X47080000Y-76450000D01*
X53390000Y-88860000D02*
X53390000Y-82760000D01*
%TD*%
%TA.AperFunction,Conductor*%
%TO.N,GND*%
G36*
X111861374Y-71490529D02*
G01*
X112707849Y-71508999D01*
X112713212Y-71509233D01*
X113556830Y-71564526D01*
X113562165Y-71564993D01*
X114402517Y-71657027D01*
X114407856Y-71657730D01*
X115243395Y-71786331D01*
X115248713Y-71787270D01*
X115340527Y-71805533D01*
X116077810Y-71952188D01*
X116083089Y-71953358D01*
X116904216Y-72154286D01*
X116909424Y-72155681D01*
X117721023Y-72392241D01*
X117726179Y-72393867D01*
X118526661Y-72665593D01*
X118531724Y-72667436D01*
X119079655Y-72880515D01*
X119319601Y-72973825D01*
X119324592Y-72975892D01*
X119711490Y-73146131D01*
X120098381Y-73316367D01*
X120103284Y-73318654D01*
X120437553Y-73483497D01*
X120781248Y-73652989D01*
X120861436Y-73692533D01*
X120866230Y-73695028D01*
X121458096Y-74019737D01*
X121607379Y-74101636D01*
X121612058Y-74104337D01*
X122334775Y-74542893D01*
X122339311Y-74545782D01*
X123042228Y-75015457D01*
X123046623Y-75018534D01*
X123728363Y-75518407D01*
X123732620Y-75521672D01*
X124391952Y-76050843D01*
X124396066Y-76054296D01*
X124745389Y-76360643D01*
X125031634Y-76611673D01*
X125035623Y-76615328D01*
X125646274Y-77199900D01*
X125650099Y-77203725D01*
X126234671Y-77814376D01*
X126238326Y-77818365D01*
X126448789Y-78058352D01*
X126792079Y-78449800D01*
X126795691Y-78453918D01*
X126799160Y-78458051D01*
X127325711Y-79114120D01*
X127328313Y-79117361D01*
X127331597Y-79121643D01*
X127831452Y-79803358D01*
X127834548Y-79807780D01*
X128143587Y-80270288D01*
X128304208Y-80510675D01*
X128307115Y-80515238D01*
X128745658Y-81237935D01*
X128748363Y-81242620D01*
X129154968Y-81983764D01*
X129157466Y-81988563D01*
X129531345Y-82746715D01*
X129533632Y-82751618D01*
X129874104Y-83525399D01*
X129876174Y-83530398D01*
X130182559Y-84318264D01*
X130184409Y-84323348D01*
X130456131Y-85123817D01*
X130457758Y-85128976D01*
X130694315Y-85940566D01*
X130695715Y-85945792D01*
X130896640Y-86766907D01*
X130897811Y-86772189D01*
X131062728Y-87601281D01*
X131063668Y-87606609D01*
X131192267Y-88442131D01*
X131192973Y-88447494D01*
X131285003Y-89287807D01*
X131285475Y-89293197D01*
X131340765Y-90136766D01*
X131341000Y-90142171D01*
X131359470Y-90988625D01*
X131359500Y-90991330D01*
X131359500Y-100988669D01*
X131359470Y-100991374D01*
X131341000Y-101837828D01*
X131340765Y-101843233D01*
X131285475Y-102686802D01*
X131285003Y-102692192D01*
X131192973Y-103532505D01*
X131192267Y-103537868D01*
X131063668Y-104373390D01*
X131062728Y-104378718D01*
X130897811Y-105207810D01*
X130896640Y-105213092D01*
X130695715Y-106034207D01*
X130694315Y-106039433D01*
X130457758Y-106851023D01*
X130456131Y-106856182D01*
X130306919Y-107295749D01*
X130266730Y-107352904D01*
X130202021Y-107379257D01*
X130133337Y-107366443D01*
X130082484Y-107318529D01*
X130065500Y-107255891D01*
X130065500Y-104961209D01*
X130062400Y-104929738D01*
X130055787Y-104862590D01*
X130025044Y-104708032D01*
X129996278Y-104613202D01*
X129935972Y-104467611D01*
X129896359Y-104393501D01*
X129889265Y-104380228D01*
X129889261Y-104380221D01*
X129889259Y-104380217D01*
X129889248Y-104380200D01*
X129801721Y-104249206D01*
X129801712Y-104249194D01*
X129801709Y-104249189D01*
X129738843Y-104172588D01*
X129627412Y-104061157D01*
X129550811Y-103998291D01*
X129550804Y-103998286D01*
X129550793Y-103998278D01*
X129419799Y-103910751D01*
X129419771Y-103910734D01*
X129332396Y-103864031D01*
X129332391Y-103864029D01*
X129325718Y-103861265D01*
X129246342Y-103828386D01*
X129186799Y-103803722D01*
X129143210Y-103790500D01*
X129091968Y-103774956D01*
X128937410Y-103744213D01*
X128937406Y-103744212D01*
X128937398Y-103744211D01*
X128857926Y-103736384D01*
X128838793Y-103734500D01*
X128681207Y-103734500D01*
X128662073Y-103736384D01*
X128582602Y-103744211D01*
X128582599Y-103744211D01*
X128504554Y-103759735D01*
X128428032Y-103774956D01*
X128384416Y-103788186D01*
X128333200Y-103803722D01*
X128187608Y-103864029D01*
X128187603Y-103864031D01*
X128100228Y-103910734D01*
X128100200Y-103910751D01*
X127969206Y-103998278D01*
X127969194Y-103998287D01*
X127969189Y-103998290D01*
X127969189Y-103998291D01*
X127892588Y-104061157D01*
X127892585Y-104061160D01*
X127892582Y-104061162D01*
X127781162Y-104172582D01*
X127781160Y-104172585D01*
X127781157Y-104172588D01*
X127718291Y-104249189D01*
X127718287Y-104249194D01*
X127718278Y-104249206D01*
X127630751Y-104380200D01*
X127630739Y-104380221D01*
X127596271Y-104444705D01*
X127547308Y-104494549D01*
X127479170Y-104510009D01*
X127413491Y-104486177D01*
X127374531Y-104438655D01*
X127353475Y-104393501D01*
X127350568Y-104387266D01*
X127220047Y-104200861D01*
X127220045Y-104200858D01*
X127059141Y-104039954D01*
X126872734Y-103909432D01*
X126872732Y-103909431D01*
X126666497Y-103813261D01*
X126666488Y-103813258D01*
X126446697Y-103754366D01*
X126446687Y-103754364D01*
X126276785Y-103739500D01*
X126276784Y-103739500D01*
X126163216Y-103739500D01*
X126163215Y-103739500D01*
X125993312Y-103754364D01*
X125993302Y-103754366D01*
X125773511Y-103813258D01*
X125773502Y-103813261D01*
X125567267Y-103909431D01*
X125567265Y-103909432D01*
X125380858Y-104039954D01*
X125219954Y-104200858D01*
X125089432Y-104387265D01*
X125089431Y-104387267D01*
X124993261Y-104593502D01*
X124993258Y-104593511D01*
X124934366Y-104813302D01*
X124934364Y-104813312D01*
X124919500Y-104983214D01*
X124919500Y-106239903D01*
X124899815Y-106306942D01*
X124883181Y-106327584D01*
X123497584Y-107713181D01*
X123436261Y-107746666D01*
X123409903Y-107749500D01*
X122169049Y-107749500D01*
X122102010Y-107729815D01*
X122056255Y-107677011D01*
X122046311Y-107607853D01*
X122075336Y-107544297D01*
X122081368Y-107537819D01*
X122140045Y-107479141D01*
X122140047Y-107479139D01*
X122270568Y-107292734D01*
X122366739Y-107086496D01*
X122425635Y-106866692D01*
X122440500Y-106696784D01*
X122440500Y-104983216D01*
X122425635Y-104813308D01*
X122367834Y-104597590D01*
X122366741Y-104593511D01*
X122366738Y-104593502D01*
X122365348Y-104590521D01*
X122270568Y-104387266D01*
X122140047Y-104200861D01*
X122140045Y-104200858D01*
X121979141Y-104039954D01*
X121792734Y-103909432D01*
X121792732Y-103909431D01*
X121586497Y-103813261D01*
X121586488Y-103813258D01*
X121366697Y-103754366D01*
X121366687Y-103754364D01*
X121196785Y-103739500D01*
X121196784Y-103739500D01*
X121083216Y-103739500D01*
X121083215Y-103739500D01*
X120913312Y-103754364D01*
X120913302Y-103754366D01*
X120693511Y-103813258D01*
X120693502Y-103813261D01*
X120487267Y-103909431D01*
X120487265Y-103909432D01*
X120300858Y-104039954D01*
X120139954Y-104200858D01*
X120009432Y-104387265D01*
X120009431Y-104387267D01*
X119982382Y-104445275D01*
X119936209Y-104497714D01*
X119869016Y-104516866D01*
X119802135Y-104496650D01*
X119757618Y-104445275D01*
X119733475Y-104393501D01*
X119730568Y-104387266D01*
X119600047Y-104200861D01*
X119600045Y-104200858D01*
X119439141Y-104039954D01*
X119252734Y-103909432D01*
X119252732Y-103909431D01*
X119046497Y-103813261D01*
X119046488Y-103813258D01*
X118826697Y-103754366D01*
X118826687Y-103754364D01*
X118656785Y-103739500D01*
X118656784Y-103739500D01*
X118543216Y-103739500D01*
X118543215Y-103739500D01*
X118373312Y-103754364D01*
X118373302Y-103754366D01*
X118153511Y-103813258D01*
X118153502Y-103813261D01*
X117947267Y-103909431D01*
X117947265Y-103909432D01*
X117760858Y-104039954D01*
X117599954Y-104200858D01*
X117469432Y-104387265D01*
X117469431Y-104387267D01*
X117442382Y-104445275D01*
X117396209Y-104497714D01*
X117329016Y-104516866D01*
X117262135Y-104496650D01*
X117217618Y-104445275D01*
X117193475Y-104393501D01*
X117190568Y-104387266D01*
X117060047Y-104200861D01*
X117060045Y-104200858D01*
X116899141Y-104039954D01*
X116712734Y-103909432D01*
X116712732Y-103909431D01*
X116506497Y-103813261D01*
X116506488Y-103813258D01*
X116286697Y-103754366D01*
X116286687Y-103754364D01*
X116116785Y-103739500D01*
X116116784Y-103739500D01*
X116003216Y-103739500D01*
X116003215Y-103739500D01*
X115833312Y-103754364D01*
X115833302Y-103754366D01*
X115613511Y-103813258D01*
X115613502Y-103813261D01*
X115407267Y-103909431D01*
X115240408Y-104026265D01*
X115209079Y-104036829D01*
X115178132Y-104048373D01*
X115176137Y-104047939D01*
X115174202Y-104048592D01*
X115142142Y-104040543D01*
X115109859Y-104033521D01*
X115107685Y-104031893D01*
X115106435Y-104031580D01*
X115081605Y-104012370D01*
X114906819Y-103837584D01*
X114873334Y-103776261D01*
X114870500Y-103749903D01*
X114870500Y-99694093D01*
X114890185Y-99627054D01*
X114942989Y-99581299D01*
X115012147Y-99571355D01*
X115026584Y-99574315D01*
X115114455Y-99597861D01*
X115180000Y-99600000D01*
X122580000Y-99600000D01*
X122645545Y-99597861D01*
X122772167Y-99563933D01*
X122885694Y-99498388D01*
X122978388Y-99405694D01*
X123043932Y-99292167D01*
X123077861Y-99165545D01*
X123080000Y-99100000D01*
X123080000Y-98482486D01*
X124424500Y-98482486D01*
X124424500Y-98667513D01*
X124453445Y-98850265D01*
X124510619Y-99026232D01*
X124510620Y-99026235D01*
X124566802Y-99136496D01*
X124594622Y-99191096D01*
X124703379Y-99340787D01*
X124834213Y-99471621D01*
X124983904Y-99580378D01*
X125064763Y-99621577D01*
X125148764Y-99664379D01*
X125148767Y-99664380D01*
X125236750Y-99692967D01*
X125324736Y-99721555D01*
X125507486Y-99750500D01*
X125507487Y-99750500D01*
X125692513Y-99750500D01*
X125692514Y-99750500D01*
X125875264Y-99721555D01*
X126051235Y-99664379D01*
X126216096Y-99580378D01*
X126365787Y-99471621D01*
X126496621Y-99340787D01*
X126605378Y-99191096D01*
X126689379Y-99026235D01*
X126746555Y-98850264D01*
X126775500Y-98667514D01*
X126775500Y-98482486D01*
X126746555Y-98299736D01*
X126703485Y-98167179D01*
X126689380Y-98123767D01*
X126689379Y-98123764D01*
X126630320Y-98007856D01*
X126605378Y-97958904D01*
X126496621Y-97809213D01*
X126365787Y-97678379D01*
X126216096Y-97569622D01*
X126178567Y-97550500D01*
X126051235Y-97485620D01*
X126051232Y-97485619D01*
X125875265Y-97428445D01*
X125783889Y-97413972D01*
X125692514Y-97399500D01*
X125507486Y-97399500D01*
X125446569Y-97409148D01*
X125324734Y-97428445D01*
X125148767Y-97485619D01*
X125148764Y-97485620D01*
X124983903Y-97569622D01*
X124933963Y-97605906D01*
X124834213Y-97678379D01*
X124834211Y-97678381D01*
X124834210Y-97678381D01*
X124703381Y-97809210D01*
X124703381Y-97809211D01*
X124703379Y-97809213D01*
X124677458Y-97844890D01*
X124594622Y-97958903D01*
X124510620Y-98123764D01*
X124510619Y-98123767D01*
X124453445Y-98299734D01*
X124424500Y-98482486D01*
X123080000Y-98482486D01*
X123080000Y-98200000D01*
X123077861Y-98134455D01*
X123043933Y-98007833D01*
X122978388Y-97894306D01*
X122885694Y-97801612D01*
X122772167Y-97736067D01*
X122645545Y-97702139D01*
X122580000Y-97700000D01*
X118880000Y-97700000D01*
X115180000Y-97700000D01*
X115114453Y-97702139D01*
X115026593Y-97725681D01*
X114956743Y-97724018D01*
X114898881Y-97684855D01*
X114871377Y-97620627D01*
X114870500Y-97605906D01*
X114870500Y-95811568D01*
X114890185Y-95744529D01*
X114906819Y-95723887D01*
X115181649Y-95449057D01*
X115461338Y-95169367D01*
X115489194Y-95154156D01*
X115516213Y-95137468D01*
X115519645Y-95137529D01*
X115522659Y-95135884D01*
X115554329Y-95138148D01*
X115586071Y-95138716D01*
X115590255Y-95140718D01*
X115592350Y-95140868D01*
X115617909Y-95153949D01*
X115645778Y-95172571D01*
X115690582Y-95226184D01*
X115699289Y-95295509D01*
X115669134Y-95358536D01*
X115664568Y-95363353D01*
X115608210Y-95419711D01*
X115520609Y-95550814D01*
X115520602Y-95550827D01*
X115460264Y-95696498D01*
X115460261Y-95696510D01*
X115429500Y-95851153D01*
X115429500Y-96008846D01*
X115460261Y-96163489D01*
X115460264Y-96163501D01*
X115520602Y-96309172D01*
X115520609Y-96309185D01*
X115608210Y-96440288D01*
X115608213Y-96440292D01*
X115719707Y-96551786D01*
X115719711Y-96551789D01*
X115850814Y-96639390D01*
X115850827Y-96639397D01*
X115943573Y-96677813D01*
X115996503Y-96699737D01*
X116110382Y-96722389D01*
X116151153Y-96730499D01*
X116151156Y-96730500D01*
X116151158Y-96730500D01*
X116308844Y-96730500D01*
X116308845Y-96730499D01*
X116385152Y-96715320D01*
X116463488Y-96699739D01*
X116463489Y-96699738D01*
X116463497Y-96699737D01*
X116487155Y-96689937D01*
X116534604Y-96680500D01*
X120963920Y-96680500D01*
X121061462Y-96661096D01*
X121108913Y-96651658D01*
X121245495Y-96595084D01*
X121310291Y-96551789D01*
X121310294Y-96551786D01*
X121310296Y-96551786D01*
X121357561Y-96520205D01*
X121368416Y-96512952D01*
X122181368Y-95700000D01*
X124680000Y-95700000D01*
X124680000Y-96150000D01*
X124680000Y-96600000D01*
X124682139Y-96665545D01*
X124715428Y-96789780D01*
X124716069Y-96792170D01*
X124781609Y-96905690D01*
X124781611Y-96905693D01*
X124781612Y-96905694D01*
X124874306Y-96998388D01*
X124987833Y-97063932D01*
X125114455Y-97097861D01*
X125180000Y-97100000D01*
X126080000Y-97100000D01*
X126145545Y-97097861D01*
X126272168Y-97063932D01*
X126385694Y-96998388D01*
X126478388Y-96905694D01*
X126543932Y-96792168D01*
X126577861Y-96665545D01*
X126580000Y-96600000D01*
X126580000Y-96150000D01*
X126580000Y-95700000D01*
X126577861Y-95634455D01*
X126543933Y-95507833D01*
X126478388Y-95394306D01*
X126385694Y-95301612D01*
X126272167Y-95236067D01*
X126145545Y-95202139D01*
X126080000Y-95200000D01*
X125180000Y-95200000D01*
X125114455Y-95202139D01*
X124987833Y-95236067D01*
X124987831Y-95236067D01*
X124987831Y-95236068D01*
X124874306Y-95301612D01*
X124874303Y-95301614D01*
X124781614Y-95394303D01*
X124781612Y-95394306D01*
X124726238Y-95490217D01*
X124716067Y-95507833D01*
X124697075Y-95578712D01*
X124682139Y-95634455D01*
X124681125Y-95665542D01*
X124680000Y-95700000D01*
X122181368Y-95700000D01*
X122936590Y-94944778D01*
X124212819Y-93668548D01*
X124274142Y-93635063D01*
X124343834Y-93640047D01*
X124399767Y-93681919D01*
X124424184Y-93747383D01*
X124424500Y-93756229D01*
X124424500Y-93817513D01*
X124453445Y-94000265D01*
X124510619Y-94176232D01*
X124510620Y-94176235D01*
X124578971Y-94310380D01*
X124594622Y-94341096D01*
X124703379Y-94490787D01*
X124834213Y-94621621D01*
X124983904Y-94730378D01*
X125050933Y-94764531D01*
X125148764Y-94814379D01*
X125148767Y-94814380D01*
X125236750Y-94842967D01*
X125324736Y-94871555D01*
X125507486Y-94900500D01*
X125507487Y-94900500D01*
X125692513Y-94900500D01*
X125692514Y-94900500D01*
X125875264Y-94871555D01*
X126051235Y-94814379D01*
X126216096Y-94730378D01*
X126365787Y-94621621D01*
X126496621Y-94490787D01*
X126605378Y-94341096D01*
X126689379Y-94176235D01*
X126746555Y-94000264D01*
X126775500Y-93817514D01*
X126775500Y-93632486D01*
X126746555Y-93449736D01*
X126724973Y-93383312D01*
X126714851Y-93352159D01*
X126703984Y-93318713D01*
X127279500Y-93318713D01*
X127279500Y-93531287D01*
X127312754Y-93741243D01*
X127358216Y-93881161D01*
X127378444Y-93943414D01*
X127474951Y-94132820D01*
X127599890Y-94304786D01*
X127750211Y-94455107D01*
X127822781Y-94507831D01*
X127914638Y-94574568D01*
X127957304Y-94629897D01*
X127965687Y-94678928D01*
X127965000Y-94699995D01*
X127965000Y-95600000D01*
X127967138Y-95665541D01*
X127967138Y-95665544D01*
X127967139Y-95665545D01*
X128001068Y-95792167D01*
X128066612Y-95905694D01*
X128159306Y-95998388D01*
X128243407Y-96046943D01*
X128291621Y-96097508D01*
X128304845Y-96166114D01*
X128278878Y-96230979D01*
X128243406Y-96261716D01*
X128174309Y-96301608D01*
X128174304Y-96301612D01*
X128081610Y-96394306D01*
X128016067Y-96507833D01*
X127982139Y-96634454D01*
X127980000Y-96699999D01*
X127980000Y-97600009D01*
X127980351Y-97610780D01*
X127962861Y-97678425D01*
X127925495Y-97716219D01*
X127926125Y-97717085D01*
X127750213Y-97844890D01*
X127599890Y-97995213D01*
X127474951Y-98167179D01*
X127378444Y-98356585D01*
X127312753Y-98558760D01*
X127279500Y-98768713D01*
X127279500Y-98981286D01*
X127312730Y-99191096D01*
X127312754Y-99191243D01*
X127361344Y-99340788D01*
X127378444Y-99393414D01*
X127474951Y-99582820D01*
X127599890Y-99754786D01*
X127750213Y-99905109D01*
X127922179Y-100030048D01*
X127922181Y-100030049D01*
X127922184Y-100030051D01*
X128111588Y-100126557D01*
X128313757Y-100192246D01*
X128523713Y-100225500D01*
X128523714Y-100225500D01*
X128736286Y-100225500D01*
X128736287Y-100225500D01*
X128946243Y-100192246D01*
X129148412Y-100126557D01*
X129337816Y-100030051D01*
X129412714Y-99975635D01*
X129509786Y-99905109D01*
X129509788Y-99905106D01*
X129509792Y-99905104D01*
X129660104Y-99754792D01*
X129660106Y-99754788D01*
X129660109Y-99754786D01*
X129785048Y-99582820D01*
X129785047Y-99582820D01*
X129785051Y-99582816D01*
X129881557Y-99393412D01*
X129947246Y-99191243D01*
X129980500Y-98981287D01*
X129980500Y-98768713D01*
X129947246Y-98558757D01*
X129881557Y-98356588D01*
X129785051Y-98167184D01*
X129779819Y-98159983D01*
X129734460Y-98097550D01*
X129710980Y-98031744D01*
X129726806Y-97963690D01*
X129747094Y-97936987D01*
X129778388Y-97905694D01*
X129843932Y-97792167D01*
X129877861Y-97665545D01*
X129880000Y-97600000D01*
X129880000Y-97150000D01*
X129880000Y-96700000D01*
X129879991Y-96699739D01*
X129879672Y-96689938D01*
X129877861Y-96634455D01*
X129843933Y-96507833D01*
X129778388Y-96394306D01*
X129685694Y-96301612D01*
X129601593Y-96253056D01*
X129553378Y-96202488D01*
X129540156Y-96133881D01*
X129566124Y-96069017D01*
X129601590Y-96038284D01*
X129670694Y-95998389D01*
X129763389Y-95905694D01*
X129828932Y-95792167D01*
X129862862Y-95665545D01*
X129865000Y-95600000D01*
X129865000Y-95150000D01*
X129865000Y-94700000D01*
X129862861Y-94634455D01*
X129828933Y-94507833D01*
X129763388Y-94394306D01*
X129740785Y-94371703D01*
X129707300Y-94310380D01*
X129712284Y-94240688D01*
X129728148Y-94211137D01*
X129753505Y-94176235D01*
X129785051Y-94132816D01*
X129881557Y-93943412D01*
X129947246Y-93741243D01*
X129980500Y-93531287D01*
X129980500Y-93318713D01*
X129947246Y-93108757D01*
X129881557Y-92906588D01*
X129785051Y-92717184D01*
X129785049Y-92717181D01*
X129785048Y-92717179D01*
X129660109Y-92545213D01*
X129509786Y-92394890D01*
X129337820Y-92269951D01*
X129148414Y-92173444D01*
X129148413Y-92173443D01*
X129148412Y-92173443D01*
X128946243Y-92107754D01*
X128946241Y-92107753D01*
X128946240Y-92107753D01*
X128784957Y-92082208D01*
X128736287Y-92074500D01*
X128523713Y-92074500D01*
X128475042Y-92082208D01*
X128313760Y-92107753D01*
X128313757Y-92107754D01*
X128181864Y-92150609D01*
X128111585Y-92173444D01*
X127922179Y-92269951D01*
X127750213Y-92394890D01*
X127599890Y-92545213D01*
X127474951Y-92717179D01*
X127378444Y-92906585D01*
X127312753Y-93108760D01*
X127298519Y-93198630D01*
X127279500Y-93318713D01*
X126703984Y-93318713D01*
X126689380Y-93273767D01*
X126689379Y-93273764D01*
X126646286Y-93189190D01*
X126605378Y-93108904D01*
X126496621Y-92959213D01*
X126365787Y-92828379D01*
X126216096Y-92719622D01*
X126184449Y-92703497D01*
X126051235Y-92635620D01*
X126051232Y-92635619D01*
X125875265Y-92578445D01*
X125770084Y-92561786D01*
X125692514Y-92549500D01*
X125631229Y-92549500D01*
X125564190Y-92529815D01*
X125518435Y-92477011D01*
X125508491Y-92407853D01*
X125537516Y-92344297D01*
X125543548Y-92337819D01*
X127282525Y-90598842D01*
X129342952Y-88538416D01*
X129376124Y-88488769D01*
X129405500Y-88444806D01*
X129415323Y-88430102D01*
X129425084Y-88415495D01*
X129430841Y-88401595D01*
X129474278Y-88347473D01*
X129599139Y-88260047D01*
X129760047Y-88099139D01*
X129890568Y-87912734D01*
X129986739Y-87706496D01*
X130045635Y-87486692D01*
X130060500Y-87316784D01*
X130060500Y-85603216D01*
X130045635Y-85433308D01*
X129986739Y-85213504D01*
X129890568Y-85007266D01*
X129760047Y-84820861D01*
X129760045Y-84820858D01*
X129599141Y-84659954D01*
X129412734Y-84529432D01*
X129412732Y-84529431D01*
X129206497Y-84433261D01*
X129206488Y-84433258D01*
X128986697Y-84374366D01*
X128986687Y-84374364D01*
X128816785Y-84359500D01*
X128816784Y-84359500D01*
X128703216Y-84359500D01*
X128703215Y-84359500D01*
X128533312Y-84374364D01*
X128533302Y-84374366D01*
X128313511Y-84433258D01*
X128313502Y-84433261D01*
X128107267Y-84529431D01*
X128107265Y-84529432D01*
X127920858Y-84659954D01*
X127759954Y-84820858D01*
X127629432Y-85007265D01*
X127629431Y-85007267D01*
X127602382Y-85065275D01*
X127556209Y-85117714D01*
X127489016Y-85136866D01*
X127422135Y-85116650D01*
X127377618Y-85065275D01*
X127350568Y-85007267D01*
X127350567Y-85007265D01*
X127350566Y-85007264D01*
X127220047Y-84820861D01*
X127220045Y-84820858D01*
X127059141Y-84659954D01*
X126872734Y-84529432D01*
X126872732Y-84529431D01*
X126666497Y-84433261D01*
X126666488Y-84433258D01*
X126446697Y-84374366D01*
X126446687Y-84374364D01*
X126276785Y-84359500D01*
X126276784Y-84359500D01*
X126163216Y-84359500D01*
X126163215Y-84359500D01*
X125993312Y-84374364D01*
X125993302Y-84374366D01*
X125773511Y-84433258D01*
X125773502Y-84433261D01*
X125567267Y-84529431D01*
X125567265Y-84529432D01*
X125380858Y-84659954D01*
X125219954Y-84820858D01*
X125089432Y-85007265D01*
X125089431Y-85007267D01*
X124993261Y-85213502D01*
X124993258Y-85213511D01*
X124934366Y-85433302D01*
X124934364Y-85433312D01*
X124919500Y-85603214D01*
X124919500Y-87316785D01*
X124934364Y-87486687D01*
X124934366Y-87486697D01*
X124993258Y-87706488D01*
X124993261Y-87706497D01*
X125089431Y-87912732D01*
X125089432Y-87912734D01*
X125219954Y-88099141D01*
X125377041Y-88256228D01*
X125410526Y-88317551D01*
X125405542Y-88387243D01*
X125377041Y-88431590D01*
X120075451Y-93733181D01*
X120014128Y-93766666D01*
X119987770Y-93769500D01*
X117160568Y-93769500D01*
X117093529Y-93749815D01*
X117047774Y-93697011D01*
X117037830Y-93627853D01*
X117066855Y-93564297D01*
X117072887Y-93557819D01*
X117867717Y-92762989D01*
X120318506Y-90312198D01*
X120318511Y-90312195D01*
X120328714Y-90301991D01*
X120328716Y-90301991D01*
X120440520Y-90190187D01*
X120508995Y-90071584D01*
X120519577Y-90053256D01*
X120560500Y-89900528D01*
X120560500Y-89742414D01*
X120560500Y-88612700D01*
X120580185Y-88545661D01*
X120632989Y-88499906D01*
X120702147Y-88489962D01*
X120716579Y-88492922D01*
X120913308Y-88545635D01*
X121083214Y-88560499D01*
X121083215Y-88560500D01*
X121083216Y-88560500D01*
X121196785Y-88560500D01*
X121196785Y-88560499D01*
X121366692Y-88545635D01*
X121586496Y-88486739D01*
X121792734Y-88390568D01*
X121979139Y-88260047D01*
X122140047Y-88099139D01*
X122270568Y-87912734D01*
X122366739Y-87706496D01*
X122425635Y-87486692D01*
X122440500Y-87316784D01*
X122440500Y-85603216D01*
X122425635Y-85433308D01*
X122366739Y-85213504D01*
X122270568Y-85007266D01*
X122140047Y-84820861D01*
X122140045Y-84820858D01*
X121979141Y-84659954D01*
X121792734Y-84529432D01*
X121792732Y-84529431D01*
X121586497Y-84433261D01*
X121586488Y-84433258D01*
X121366697Y-84374366D01*
X121366687Y-84374364D01*
X121196785Y-84359500D01*
X121196784Y-84359500D01*
X121083216Y-84359500D01*
X121083215Y-84359500D01*
X120913312Y-84374364D01*
X120913302Y-84374366D01*
X120693505Y-84433260D01*
X120685692Y-84436903D01*
X120681532Y-84437534D01*
X120678199Y-84440101D01*
X120647289Y-84442732D01*
X120616613Y-84447390D01*
X120612771Y-84445672D01*
X120608581Y-84446029D01*
X120581158Y-84431533D01*
X120552832Y-84418865D01*
X120549469Y-84414782D01*
X120546810Y-84413377D01*
X120539818Y-84403064D01*
X120525278Y-84385412D01*
X120520240Y-84376475D01*
X120519577Y-84374001D01*
X120488848Y-84320778D01*
X120488512Y-84320197D01*
X120488481Y-84320141D01*
X120440524Y-84237076D01*
X120440522Y-84237073D01*
X120440520Y-84237070D01*
X120328716Y-84125266D01*
X120328715Y-84125265D01*
X120324385Y-84120935D01*
X120324374Y-84120925D01*
X108821804Y-72618355D01*
X108821802Y-72618352D01*
X108702931Y-72499481D01*
X108702930Y-72499480D01*
X108616118Y-72449360D01*
X108616118Y-72449359D01*
X108616114Y-72449358D01*
X108565999Y-72420423D01*
X108413271Y-72379499D01*
X108255157Y-72379499D01*
X108247561Y-72379499D01*
X108247545Y-72379500D01*
X50666670Y-72379500D01*
X50666654Y-72379499D01*
X50659058Y-72379499D01*
X50500943Y-72379499D01*
X50348216Y-72420423D01*
X50348214Y-72420423D01*
X50348214Y-72420424D01*
X50326628Y-72432887D01*
X50264627Y-72449500D01*
X50231155Y-72449500D01*
X50076510Y-72480261D01*
X50076498Y-72480264D01*
X49930827Y-72540602D01*
X49930814Y-72540609D01*
X49799711Y-72628210D01*
X49799707Y-72628213D01*
X49688213Y-72739707D01*
X49688210Y-72739711D01*
X49600609Y-72870814D01*
X49600602Y-72870827D01*
X49540264Y-73016498D01*
X49540261Y-73016510D01*
X49509500Y-73171153D01*
X49509500Y-73328846D01*
X49540261Y-73483489D01*
X49540264Y-73483501D01*
X49600602Y-73629172D01*
X49600609Y-73629185D01*
X49688210Y-73760288D01*
X49688213Y-73760292D01*
X49799707Y-73871786D01*
X49799711Y-73871789D01*
X49930814Y-73959390D01*
X49930827Y-73959397D01*
X50069458Y-74016819D01*
X50076503Y-74019737D01*
X50231153Y-74050499D01*
X50231156Y-74050500D01*
X50231158Y-74050500D01*
X50388844Y-74050500D01*
X50388845Y-74050499D01*
X50543497Y-74019737D01*
X50689179Y-73959394D01*
X50820289Y-73871789D01*
X50931789Y-73760289D01*
X51015098Y-73635609D01*
X51068710Y-73590804D01*
X51118200Y-73580500D01*
X53170903Y-73580500D01*
X53237942Y-73600185D01*
X53283697Y-73652989D01*
X53293641Y-73722147D01*
X53264616Y-73785703D01*
X53258584Y-73792181D01*
X51027584Y-76023181D01*
X50966261Y-76056666D01*
X50939903Y-76059500D01*
X49539766Y-76059500D01*
X49472727Y-76039815D01*
X49470875Y-76038602D01*
X49339185Y-75950609D01*
X49339172Y-75950602D01*
X49193501Y-75890264D01*
X49193489Y-75890261D01*
X49038845Y-75859500D01*
X49038842Y-75859500D01*
X48881158Y-75859500D01*
X48881155Y-75859500D01*
X48726510Y-75890261D01*
X48726498Y-75890264D01*
X48580827Y-75950602D01*
X48580814Y-75950609D01*
X48449711Y-76038210D01*
X48449707Y-76038213D01*
X48338213Y-76149707D01*
X48338210Y-76149711D01*
X48250609Y-76280814D01*
X48250606Y-76280821D01*
X48240077Y-76306240D01*
X48196235Y-76360643D01*
X48129941Y-76382707D01*
X48062242Y-76365427D01*
X48037835Y-76346467D01*
X47826071Y-76134703D01*
X47799191Y-76094475D01*
X47789394Y-76070821D01*
X47777163Y-76052516D01*
X47701789Y-75939710D01*
X47590292Y-75828213D01*
X47590288Y-75828210D01*
X47459185Y-75740609D01*
X47459172Y-75740602D01*
X47313501Y-75680264D01*
X47313489Y-75680261D01*
X47158845Y-75649500D01*
X47158842Y-75649500D01*
X47001158Y-75649500D01*
X47001155Y-75649500D01*
X46846510Y-75680261D01*
X46846498Y-75680264D01*
X46700827Y-75740602D01*
X46700814Y-75740609D01*
X46569711Y-75828210D01*
X46569707Y-75828213D01*
X46458213Y-75939707D01*
X46458210Y-75939711D01*
X46370609Y-76070814D01*
X46370602Y-76070827D01*
X46310264Y-76216498D01*
X46310261Y-76216510D01*
X46279500Y-76371153D01*
X46279500Y-76528846D01*
X46310261Y-76683489D01*
X46310264Y-76683501D01*
X46370602Y-76829172D01*
X46370609Y-76829185D01*
X46458210Y-76960288D01*
X46458213Y-76960292D01*
X46569710Y-77071789D01*
X46672574Y-77140520D01*
X46700821Y-77159394D01*
X46724475Y-77169191D01*
X46764703Y-77196071D01*
X52603181Y-83034548D01*
X52636666Y-83095871D01*
X52639500Y-83122229D01*
X52639500Y-88555396D01*
X52630062Y-88602844D01*
X52620263Y-88626503D01*
X52620262Y-88626506D01*
X52620260Y-88626511D01*
X52589500Y-88781153D01*
X52589500Y-88938846D01*
X52620261Y-89093489D01*
X52620264Y-89093501D01*
X52680602Y-89239172D01*
X52680609Y-89239185D01*
X52768210Y-89370288D01*
X52768213Y-89370292D01*
X52879707Y-89481786D01*
X52879711Y-89481789D01*
X53015316Y-89572398D01*
X53060121Y-89626010D01*
X53068828Y-89695335D01*
X53038674Y-89758363D01*
X52979230Y-89795082D01*
X52946425Y-89799500D01*
X41326080Y-89799500D01*
X41181092Y-89828340D01*
X41181082Y-89828343D01*
X41044510Y-89884913D01*
X41044506Y-89884915D01*
X41044505Y-89884916D01*
X41024868Y-89898036D01*
X41024605Y-89898213D01*
X41024604Y-89898212D01*
X40921585Y-89967046D01*
X40921578Y-89967052D01*
X38995451Y-91893181D01*
X38934128Y-91926666D01*
X38907770Y-91929500D01*
X37502940Y-91929500D01*
X37435901Y-91909815D01*
X37415258Y-91893180D01*
X37370292Y-91848213D01*
X37370288Y-91848210D01*
X37239185Y-91760609D01*
X37239172Y-91760602D01*
X37093501Y-91700264D01*
X37093489Y-91700261D01*
X36938845Y-91669500D01*
X36938842Y-91669500D01*
X36781158Y-91669500D01*
X36781155Y-91669500D01*
X36626510Y-91700261D01*
X36626498Y-91700264D01*
X36480827Y-91760602D01*
X36480814Y-91760609D01*
X36349711Y-91848210D01*
X36349707Y-91848213D01*
X36238213Y-91959707D01*
X36238210Y-91959711D01*
X36150609Y-92090814D01*
X36150602Y-92090827D01*
X36090264Y-92236498D01*
X36090261Y-92236510D01*
X36059500Y-92391153D01*
X36059500Y-92548846D01*
X36090261Y-92703489D01*
X36090264Y-92703501D01*
X36150602Y-92849172D01*
X36150609Y-92849185D01*
X36238210Y-92980288D01*
X36238213Y-92980292D01*
X36349710Y-93091789D01*
X36375325Y-93108904D01*
X36480821Y-93179394D01*
X36504477Y-93189192D01*
X36534505Y-93206941D01*
X36539854Y-93211222D01*
X36591584Y-93262952D01*
X36665270Y-93312186D01*
X36714505Y-93345084D01*
X36714506Y-93345084D01*
X36714507Y-93345085D01*
X36714509Y-93345086D01*
X36851082Y-93401656D01*
X36851087Y-93401658D01*
X36851091Y-93401658D01*
X36851092Y-93401659D01*
X36996079Y-93430500D01*
X36996082Y-93430500D01*
X39343920Y-93430500D01*
X39441462Y-93411096D01*
X39488913Y-93401658D01*
X39625495Y-93345084D01*
X39674729Y-93312186D01*
X39748416Y-93262952D01*
X41674549Y-91336819D01*
X41735872Y-91303334D01*
X41762230Y-91300500D01*
X55248401Y-91300500D01*
X55272591Y-91302882D01*
X55300992Y-91308532D01*
X55361156Y-91320500D01*
X55361158Y-91320500D01*
X55518844Y-91320500D01*
X55518845Y-91320499D01*
X55673497Y-91289737D01*
X55819179Y-91229394D01*
X55950289Y-91141789D01*
X56061789Y-91030289D01*
X56149394Y-90899179D01*
X56209737Y-90753497D01*
X56240500Y-90598842D01*
X56240500Y-90441158D01*
X56240500Y-90441155D01*
X56240499Y-90441153D01*
X56212818Y-90301992D01*
X56209737Y-90286503D01*
X56209735Y-90286498D01*
X56149397Y-90140827D01*
X56149390Y-90140814D01*
X56061789Y-90009711D01*
X56061786Y-90009707D01*
X55950292Y-89898213D01*
X55950288Y-89898210D01*
X55819185Y-89810609D01*
X55819172Y-89810602D01*
X55673501Y-89750264D01*
X55673489Y-89750261D01*
X55518845Y-89719500D01*
X55518842Y-89719500D01*
X55361158Y-89719500D01*
X55361155Y-89719500D01*
X55206511Y-89750260D01*
X55206501Y-89750263D01*
X55110421Y-89790061D01*
X55062969Y-89799500D01*
X53833575Y-89799500D01*
X53766536Y-89779815D01*
X53720781Y-89727011D01*
X53710837Y-89657853D01*
X53739862Y-89594297D01*
X53764684Y-89572398D01*
X53841046Y-89521374D01*
X53900289Y-89481789D01*
X54011789Y-89370289D01*
X54099394Y-89239179D01*
X54159737Y-89093497D01*
X54190500Y-88938842D01*
X54190500Y-88781158D01*
X54190500Y-88781155D01*
X54190499Y-88781153D01*
X54159739Y-88626511D01*
X54159738Y-88626508D01*
X54159737Y-88626503D01*
X54149937Y-88602844D01*
X54140500Y-88555396D01*
X54140500Y-82686080D01*
X54129241Y-82629482D01*
X54129241Y-82629481D01*
X54111659Y-82541088D01*
X54057408Y-82410117D01*
X54055764Y-82405522D01*
X53972954Y-82281588D01*
X53972953Y-82281587D01*
X53972951Y-82281584D01*
X53868416Y-82177049D01*
X51684856Y-79993489D01*
X49273532Y-77582164D01*
X49240047Y-77520841D01*
X49245031Y-77451149D01*
X49286903Y-77395216D01*
X49296180Y-77388905D01*
X49304607Y-77383713D01*
X49339179Y-77369394D01*
X49385099Y-77338711D01*
X94729500Y-77338711D01*
X94729500Y-77581288D01*
X94760860Y-77819500D01*
X94761162Y-77821789D01*
X94779268Y-77889360D01*
X94823947Y-78056104D01*
X94908284Y-78259711D01*
X94916776Y-78280212D01*
X95038064Y-78490289D01*
X95038066Y-78490292D01*
X95038067Y-78490293D01*
X95185733Y-78682736D01*
X95185739Y-78682743D01*
X95357256Y-78854260D01*
X95357262Y-78854265D01*
X95549711Y-79001936D01*
X95759788Y-79123224D01*
X95983900Y-79216054D01*
X96218211Y-79278838D01*
X96398586Y-79302584D01*
X96458711Y-79310500D01*
X96458712Y-79310500D01*
X96701289Y-79310500D01*
X96749388Y-79304167D01*
X96941789Y-79278838D01*
X97176100Y-79216054D01*
X97400212Y-79123224D01*
X97610289Y-79001936D01*
X97802738Y-78854265D01*
X97974265Y-78682738D01*
X98121936Y-78490289D01*
X98243224Y-78280212D01*
X98336054Y-78056100D01*
X98398838Y-77821789D01*
X98430500Y-77581288D01*
X98430500Y-77338712D01*
X98398838Y-77098211D01*
X98336054Y-76863900D01*
X98243224Y-76639788D01*
X98121936Y-76429711D01*
X97974265Y-76237262D01*
X97974260Y-76237256D01*
X97802743Y-76065739D01*
X97802736Y-76065733D01*
X97610293Y-75918067D01*
X97610292Y-75918066D01*
X97610289Y-75918064D01*
X97400212Y-75796776D01*
X97400205Y-75796773D01*
X97176104Y-75703947D01*
X97058944Y-75672554D01*
X96941789Y-75641162D01*
X96941788Y-75641161D01*
X96941785Y-75641161D01*
X96701289Y-75609500D01*
X96701288Y-75609500D01*
X96458712Y-75609500D01*
X96458711Y-75609500D01*
X96218214Y-75641161D01*
X95983895Y-75703947D01*
X95759794Y-75796773D01*
X95759785Y-75796777D01*
X95549706Y-75918067D01*
X95357263Y-76065733D01*
X95357256Y-76065739D01*
X95185739Y-76237256D01*
X95185733Y-76237263D01*
X95038067Y-76429706D01*
X94916777Y-76639785D01*
X94916773Y-76639794D01*
X94823947Y-76863895D01*
X94761161Y-77098214D01*
X94729500Y-77338711D01*
X49385099Y-77338711D01*
X49470289Y-77281789D01*
X49470626Y-77281451D01*
X49474733Y-77278922D01*
X49506313Y-77270301D01*
X49537553Y-77260520D01*
X49539766Y-77260500D01*
X51153331Y-77260500D01*
X51153347Y-77260501D01*
X51160943Y-77260501D01*
X51319054Y-77260501D01*
X51319057Y-77260501D01*
X51471785Y-77219577D01*
X51521904Y-77190639D01*
X51608716Y-77140520D01*
X51720520Y-77028716D01*
X51720520Y-77028714D01*
X51730728Y-77018507D01*
X51730729Y-77018504D01*
X54732416Y-74016819D01*
X54793739Y-73983334D01*
X54820097Y-73980500D01*
X107868432Y-73980500D01*
X107935471Y-74000185D01*
X107956113Y-74016819D01*
X114770630Y-80831336D01*
X114804115Y-80892659D01*
X114799131Y-80962351D01*
X114786051Y-80987907D01*
X114710612Y-81100809D01*
X114710602Y-81100827D01*
X114650264Y-81246498D01*
X114650261Y-81246508D01*
X114619361Y-81401850D01*
X114586976Y-81463761D01*
X114585425Y-81465339D01*
X114187584Y-81863181D01*
X114126261Y-81896666D01*
X114099903Y-81899500D01*
X106800942Y-81899500D01*
X106648214Y-81940423D01*
X106628347Y-81951894D01*
X106628346Y-81951894D01*
X106511287Y-82019477D01*
X106511282Y-82019481D01*
X104433677Y-84097086D01*
X104433668Y-84097095D01*
X104431286Y-84099478D01*
X104431284Y-84099480D01*
X104319480Y-84211284D01*
X104304593Y-84237070D01*
X104298142Y-84248242D01*
X104298142Y-84248243D01*
X104240423Y-84348213D01*
X104227710Y-84395658D01*
X104214214Y-84446029D01*
X104209401Y-84463990D01*
X104173035Y-84523650D01*
X104110188Y-84554179D01*
X104040813Y-84545884D01*
X104018509Y-84533475D01*
X104012739Y-84529435D01*
X104012732Y-84529431D01*
X103806497Y-84433261D01*
X103806488Y-84433258D01*
X103586697Y-84374366D01*
X103586687Y-84374364D01*
X103416785Y-84359500D01*
X103416784Y-84359500D01*
X103303216Y-84359500D01*
X103303215Y-84359500D01*
X103133312Y-84374364D01*
X103133302Y-84374366D01*
X102913511Y-84433258D01*
X102913502Y-84433261D01*
X102707267Y-84529431D01*
X102707265Y-84529432D01*
X102520858Y-84659954D01*
X102359954Y-84820858D01*
X102229432Y-85007265D01*
X102229431Y-85007267D01*
X102202382Y-85065275D01*
X102156209Y-85117714D01*
X102089016Y-85136866D01*
X102022135Y-85116650D01*
X101977618Y-85065275D01*
X101950568Y-85007267D01*
X101950567Y-85007265D01*
X101950566Y-85007264D01*
X101820047Y-84820861D01*
X101820045Y-84820858D01*
X101659141Y-84659954D01*
X101472734Y-84529432D01*
X101472732Y-84529431D01*
X101266497Y-84433261D01*
X101266488Y-84433258D01*
X101046697Y-84374366D01*
X101046687Y-84374364D01*
X100876785Y-84359500D01*
X100876784Y-84359500D01*
X100763216Y-84359500D01*
X100763215Y-84359500D01*
X100593312Y-84374364D01*
X100593302Y-84374366D01*
X100373511Y-84433258D01*
X100373502Y-84433261D01*
X100167267Y-84529431D01*
X100167265Y-84529432D01*
X99980858Y-84659954D01*
X99819954Y-84820858D01*
X99689432Y-85007265D01*
X99689431Y-85007267D01*
X99593261Y-85213502D01*
X99593258Y-85213511D01*
X99534366Y-85433302D01*
X99534364Y-85433312D01*
X99519500Y-85603214D01*
X99519500Y-87316785D01*
X99534364Y-87486687D01*
X99534366Y-87486697D01*
X99593258Y-87706488D01*
X99593261Y-87706497D01*
X99689431Y-87912732D01*
X99689432Y-87912734D01*
X99819954Y-88099141D01*
X99980858Y-88260045D01*
X99980861Y-88260047D01*
X100167266Y-88390568D01*
X100373504Y-88486739D01*
X100373509Y-88486740D01*
X100373511Y-88486741D01*
X100410205Y-88496573D01*
X100593308Y-88545635D01*
X100763214Y-88560499D01*
X100763215Y-88560500D01*
X100763216Y-88560500D01*
X100876785Y-88560500D01*
X100876785Y-88560499D01*
X101046692Y-88545635D01*
X101266496Y-88486739D01*
X101472734Y-88390568D01*
X101659139Y-88260047D01*
X101820047Y-88099139D01*
X101950568Y-87912734D01*
X101977618Y-87854724D01*
X102023790Y-87802285D01*
X102090983Y-87783133D01*
X102157865Y-87803348D01*
X102202382Y-87854725D01*
X102229429Y-87912728D01*
X102229432Y-87912734D01*
X102359954Y-88099141D01*
X102520858Y-88260045D01*
X102520861Y-88260047D01*
X102706624Y-88390118D01*
X102750248Y-88444693D01*
X102759500Y-88491692D01*
X102759500Y-91039902D01*
X102739815Y-91106941D01*
X102723181Y-91127583D01*
X101825339Y-92025425D01*
X101764016Y-92058910D01*
X101761850Y-92059361D01*
X101606508Y-92090261D01*
X101606498Y-92090264D01*
X101460827Y-92150602D01*
X101460814Y-92150609D01*
X101329711Y-92238210D01*
X101329707Y-92238213D01*
X101218213Y-92349707D01*
X101218210Y-92349711D01*
X101130609Y-92480814D01*
X101130602Y-92480827D01*
X101070264Y-92626498D01*
X101070261Y-92626510D01*
X101039500Y-92781153D01*
X101039500Y-92938846D01*
X101070261Y-93093489D01*
X101070264Y-93093501D01*
X101130602Y-93239172D01*
X101130609Y-93239185D01*
X101218210Y-93370288D01*
X101218213Y-93370292D01*
X101329707Y-93481786D01*
X101329711Y-93481789D01*
X101460814Y-93569390D01*
X101460827Y-93569397D01*
X101606498Y-93629735D01*
X101606503Y-93629737D01*
X101761153Y-93660499D01*
X101761156Y-93660500D01*
X101761158Y-93660500D01*
X101918844Y-93660500D01*
X101918845Y-93660499D01*
X102073497Y-93629737D01*
X102219179Y-93569394D01*
X102350289Y-93481789D01*
X102461789Y-93370289D01*
X102549394Y-93239179D01*
X102609737Y-93093497D01*
X102636448Y-92959213D01*
X102640638Y-92938150D01*
X102673023Y-92876239D01*
X102674517Y-92874717D01*
X103840520Y-91708716D01*
X103919577Y-91571784D01*
X103955725Y-91436877D01*
X103992091Y-91377219D01*
X104054938Y-91346690D01*
X104124313Y-91354985D01*
X104178191Y-91399471D01*
X104199465Y-91466023D01*
X104199500Y-91468973D01*
X104199500Y-93428431D01*
X104179815Y-93495470D01*
X104163181Y-93516112D01*
X95259481Y-102419811D01*
X95259480Y-102419813D01*
X95222004Y-102484724D01*
X95180423Y-102556744D01*
X95139499Y-102709472D01*
X95139499Y-102709474D01*
X95139499Y-102877575D01*
X95139500Y-102877588D01*
X95139500Y-103808306D01*
X95119815Y-103875345D01*
X95086623Y-103909881D01*
X94900859Y-104039953D01*
X94739954Y-104200858D01*
X94609432Y-104387265D01*
X94609431Y-104387267D01*
X94582382Y-104445275D01*
X94536209Y-104497714D01*
X94469016Y-104516866D01*
X94402135Y-104496650D01*
X94357618Y-104445275D01*
X94333475Y-104393501D01*
X94330568Y-104387266D01*
X94200047Y-104200861D01*
X94200045Y-104200858D01*
X94039141Y-104039954D01*
X93852731Y-103909430D01*
X93852725Y-103909427D01*
X93851100Y-103908669D01*
X93850504Y-103908144D01*
X93848039Y-103906721D01*
X93848325Y-103906225D01*
X93798664Y-103862493D01*
X93783738Y-103828386D01*
X93759577Y-103738216D01*
X93757432Y-103734500D01*
X93680524Y-103601290D01*
X93680521Y-103601286D01*
X93680520Y-103601284D01*
X68834573Y-78755337D01*
X68825510Y-78738740D01*
X68812377Y-78725129D01*
X68801972Y-78695633D01*
X68801088Y-78694014D01*
X68800636Y-78691845D01*
X68800500Y-78691161D01*
X68800500Y-78691158D01*
X68792543Y-78651158D01*
X68792542Y-78651153D01*
X72009500Y-78651153D01*
X72009500Y-78808846D01*
X72040261Y-78963489D01*
X72040264Y-78963501D01*
X72100602Y-79109172D01*
X72100609Y-79109185D01*
X72188210Y-79240288D01*
X72188213Y-79240292D01*
X72299707Y-79351786D01*
X72299711Y-79351789D01*
X72430814Y-79439390D01*
X72430827Y-79439397D01*
X72540082Y-79484651D01*
X72576503Y-79499737D01*
X72681918Y-79520705D01*
X72743825Y-79553088D01*
X72745405Y-79554640D01*
X79163181Y-85972416D01*
X79196666Y-86033739D01*
X79199500Y-86060097D01*
X79199500Y-87316785D01*
X79214364Y-87486687D01*
X79214366Y-87486697D01*
X79273258Y-87706488D01*
X79273261Y-87706497D01*
X79369431Y-87912732D01*
X79369432Y-87912734D01*
X79499954Y-88099141D01*
X79660858Y-88260045D01*
X79660861Y-88260047D01*
X79847266Y-88390568D01*
X80053504Y-88486739D01*
X80053509Y-88486740D01*
X80053511Y-88486741D01*
X80090205Y-88496573D01*
X80273308Y-88545635D01*
X80443214Y-88560499D01*
X80443215Y-88560500D01*
X80443216Y-88560500D01*
X80556785Y-88560500D01*
X80556785Y-88560499D01*
X80726692Y-88545635D01*
X80946496Y-88486739D01*
X81152734Y-88390568D01*
X81339139Y-88260047D01*
X81500047Y-88099139D01*
X81630568Y-87912734D01*
X81657618Y-87854724D01*
X81703790Y-87802285D01*
X81770983Y-87783133D01*
X81837865Y-87803348D01*
X81882382Y-87854725D01*
X81909429Y-87912728D01*
X81909432Y-87912734D01*
X82039954Y-88099141D01*
X82200858Y-88260045D01*
X82200861Y-88260047D01*
X82387266Y-88390568D01*
X82593504Y-88486739D01*
X82593509Y-88486740D01*
X82593511Y-88486741D01*
X82630205Y-88496573D01*
X82813308Y-88545635D01*
X82983214Y-88560499D01*
X82983215Y-88560500D01*
X82983216Y-88560500D01*
X83096785Y-88560500D01*
X83096785Y-88560499D01*
X83266692Y-88545635D01*
X83486496Y-88486739D01*
X83692734Y-88390568D01*
X83879139Y-88260047D01*
X84040047Y-88099139D01*
X84170568Y-87912734D01*
X84266739Y-87706496D01*
X84325635Y-87486692D01*
X84340500Y-87316784D01*
X84340500Y-85603216D01*
X84325635Y-85433308D01*
X84266739Y-85213504D01*
X84170568Y-85007266D01*
X84040047Y-84820861D01*
X84040045Y-84820858D01*
X83879141Y-84659954D01*
X83692734Y-84529432D01*
X83692732Y-84529431D01*
X83486497Y-84433261D01*
X83486488Y-84433258D01*
X83266697Y-84374366D01*
X83266687Y-84374364D01*
X83096785Y-84359500D01*
X83096784Y-84359500D01*
X82983216Y-84359500D01*
X82983215Y-84359500D01*
X82813312Y-84374364D01*
X82813302Y-84374366D01*
X82593511Y-84433258D01*
X82593502Y-84433261D01*
X82387267Y-84529431D01*
X82220408Y-84646265D01*
X82154202Y-84668592D01*
X82086435Y-84651580D01*
X82061605Y-84632370D01*
X77174574Y-79745339D01*
X77141089Y-79684016D01*
X77140638Y-79681849D01*
X77118516Y-79570638D01*
X77109737Y-79526503D01*
X77090224Y-79479394D01*
X77049397Y-79380827D01*
X77049390Y-79380814D01*
X76961789Y-79249711D01*
X76961786Y-79249707D01*
X76944260Y-79232181D01*
X76910775Y-79170858D01*
X76915759Y-79101166D01*
X76957631Y-79045233D01*
X77023095Y-79020816D01*
X77031941Y-79020500D01*
X79899903Y-79020500D01*
X79966942Y-79040185D01*
X79987584Y-79056819D01*
X86783181Y-85852416D01*
X86816666Y-85913739D01*
X86819500Y-85940097D01*
X86819500Y-87316785D01*
X86834364Y-87486687D01*
X86834366Y-87486697D01*
X86893258Y-87706488D01*
X86893261Y-87706497D01*
X86989431Y-87912732D01*
X86989432Y-87912734D01*
X87119954Y-88099141D01*
X87280858Y-88260045D01*
X87280861Y-88260047D01*
X87467266Y-88390568D01*
X87673504Y-88486739D01*
X87673509Y-88486740D01*
X87673511Y-88486741D01*
X87710205Y-88496573D01*
X87893308Y-88545635D01*
X88063214Y-88560499D01*
X88063215Y-88560500D01*
X88063216Y-88560500D01*
X88176785Y-88560500D01*
X88176785Y-88560499D01*
X88346692Y-88545635D01*
X88566496Y-88486739D01*
X88772734Y-88390568D01*
X88959139Y-88260047D01*
X89120047Y-88099139D01*
X89250568Y-87912734D01*
X89277618Y-87854724D01*
X89323790Y-87802285D01*
X89390983Y-87783133D01*
X89457865Y-87803348D01*
X89502382Y-87854725D01*
X89529429Y-87912728D01*
X89529432Y-87912734D01*
X89659954Y-88099141D01*
X89820858Y-88260045D01*
X89820861Y-88260047D01*
X90007266Y-88390568D01*
X90213504Y-88486739D01*
X90213509Y-88486740D01*
X90213511Y-88486741D01*
X90250205Y-88496573D01*
X90433308Y-88545635D01*
X90603214Y-88560499D01*
X90603215Y-88560500D01*
X90603216Y-88560500D01*
X90716785Y-88560500D01*
X90716785Y-88560499D01*
X90886692Y-88545635D01*
X91106496Y-88486739D01*
X91312734Y-88390568D01*
X91499139Y-88260047D01*
X91660047Y-88099139D01*
X91790568Y-87912734D01*
X91817618Y-87854724D01*
X91863790Y-87802285D01*
X91930983Y-87783133D01*
X91997865Y-87803348D01*
X92042382Y-87854725D01*
X92069429Y-87912728D01*
X92069432Y-87912734D01*
X92199954Y-88099141D01*
X92360858Y-88260045D01*
X92360861Y-88260047D01*
X92547266Y-88390568D01*
X92753504Y-88486739D01*
X92753509Y-88486740D01*
X92753511Y-88486741D01*
X92790205Y-88496573D01*
X92973308Y-88545635D01*
X93143214Y-88560499D01*
X93143215Y-88560500D01*
X93143216Y-88560500D01*
X93256785Y-88560500D01*
X93256785Y-88560499D01*
X93426692Y-88545635D01*
X93646496Y-88486739D01*
X93852734Y-88390568D01*
X94039139Y-88260047D01*
X94200047Y-88099139D01*
X94330568Y-87912734D01*
X94357618Y-87854724D01*
X94403790Y-87802285D01*
X94470983Y-87783133D01*
X94537865Y-87803348D01*
X94582382Y-87854725D01*
X94609429Y-87912728D01*
X94609432Y-87912734D01*
X94739954Y-88099141D01*
X94900858Y-88260045D01*
X94900861Y-88260047D01*
X95087266Y-88390568D01*
X95293504Y-88486739D01*
X95293509Y-88486740D01*
X95293511Y-88486741D01*
X95330205Y-88496573D01*
X95513308Y-88545635D01*
X95683214Y-88560499D01*
X95683215Y-88560500D01*
X95683216Y-88560500D01*
X95796785Y-88560500D01*
X95796785Y-88560499D01*
X95966692Y-88545635D01*
X96186496Y-88486739D01*
X96392734Y-88390568D01*
X96579139Y-88260047D01*
X96740047Y-88099139D01*
X96870568Y-87912734D01*
X96966739Y-87706496D01*
X97025635Y-87486692D01*
X97040500Y-87316784D01*
X97040500Y-85603216D01*
X97025635Y-85433308D01*
X96966739Y-85213504D01*
X96870568Y-85007266D01*
X96740047Y-84820861D01*
X96740045Y-84820858D01*
X96579141Y-84659954D01*
X96392734Y-84529432D01*
X96392732Y-84529431D01*
X96186497Y-84433261D01*
X96186488Y-84433258D01*
X95966697Y-84374366D01*
X95966687Y-84374364D01*
X95796785Y-84359500D01*
X95796784Y-84359500D01*
X95683216Y-84359500D01*
X95683215Y-84359500D01*
X95513312Y-84374364D01*
X95513302Y-84374366D01*
X95293511Y-84433258D01*
X95293502Y-84433261D01*
X95087267Y-84529431D01*
X95087265Y-84529432D01*
X94900858Y-84659954D01*
X94739954Y-84820858D01*
X94609432Y-85007265D01*
X94609431Y-85007267D01*
X94582382Y-85065275D01*
X94536209Y-85117714D01*
X94469016Y-85136866D01*
X94402135Y-85116650D01*
X94357618Y-85065275D01*
X94330568Y-85007267D01*
X94330567Y-85007265D01*
X94330566Y-85007264D01*
X94200047Y-84820861D01*
X94200045Y-84820858D01*
X94039141Y-84659954D01*
X93852734Y-84529432D01*
X93852732Y-84529431D01*
X93646497Y-84433261D01*
X93646488Y-84433258D01*
X93426697Y-84374366D01*
X93426687Y-84374364D01*
X93256785Y-84359500D01*
X93256784Y-84359500D01*
X93143216Y-84359500D01*
X93143215Y-84359500D01*
X92973312Y-84374364D01*
X92973302Y-84374366D01*
X92753511Y-84433258D01*
X92753502Y-84433261D01*
X92547267Y-84529431D01*
X92547265Y-84529432D01*
X92360858Y-84659954D01*
X92199954Y-84820858D01*
X92069432Y-85007265D01*
X92069431Y-85007267D01*
X92042382Y-85065275D01*
X91996209Y-85117714D01*
X91929016Y-85136866D01*
X91862135Y-85116650D01*
X91817618Y-85065275D01*
X91790568Y-85007267D01*
X91790567Y-85007265D01*
X91790566Y-85007264D01*
X91660047Y-84820861D01*
X91660045Y-84820858D01*
X91499140Y-84659953D01*
X91313377Y-84529881D01*
X91269752Y-84475304D01*
X91260500Y-84428306D01*
X91260500Y-83585002D01*
X91280185Y-83517963D01*
X91281398Y-83516111D01*
X91299394Y-83489179D01*
X91359737Y-83343497D01*
X91390500Y-83188842D01*
X91390500Y-83031158D01*
X91390500Y-83031155D01*
X91390499Y-83031153D01*
X91359738Y-82876510D01*
X91359737Y-82876503D01*
X91352283Y-82858507D01*
X91299397Y-82730827D01*
X91299390Y-82730814D01*
X91211789Y-82599711D01*
X91211786Y-82599707D01*
X91100292Y-82488213D01*
X91100288Y-82488210D01*
X90969185Y-82400609D01*
X90969172Y-82400602D01*
X90823501Y-82340264D01*
X90823489Y-82340261D01*
X90668845Y-82309500D01*
X90668842Y-82309500D01*
X90511158Y-82309500D01*
X90511155Y-82309500D01*
X90356510Y-82340261D01*
X90356498Y-82340264D01*
X90210827Y-82400602D01*
X90210814Y-82400609D01*
X90079711Y-82488210D01*
X90079707Y-82488213D01*
X89968213Y-82599707D01*
X89968210Y-82599711D01*
X89880609Y-82730814D01*
X89880602Y-82730827D01*
X89820264Y-82876498D01*
X89820261Y-82876510D01*
X89789500Y-83031153D01*
X89789500Y-83188846D01*
X89820261Y-83343489D01*
X89820264Y-83343501D01*
X89880602Y-83489172D01*
X89880609Y-83489185D01*
X89968209Y-83620287D01*
X89968210Y-83620288D01*
X89968211Y-83620289D01*
X90023182Y-83675260D01*
X90056666Y-83736581D01*
X90059500Y-83762940D01*
X90059500Y-84428306D01*
X90039815Y-84495345D01*
X90006623Y-84529881D01*
X89820859Y-84659953D01*
X89659954Y-84820858D01*
X89529432Y-85007265D01*
X89529431Y-85007267D01*
X89502382Y-85065275D01*
X89456209Y-85117714D01*
X89389016Y-85136866D01*
X89322135Y-85116650D01*
X89277618Y-85065275D01*
X89250568Y-85007267D01*
X89250567Y-85007265D01*
X89250566Y-85007264D01*
X89120047Y-84820861D01*
X89120045Y-84820858D01*
X88959141Y-84659954D01*
X88772734Y-84529432D01*
X88772732Y-84529431D01*
X88566497Y-84433261D01*
X88566488Y-84433258D01*
X88346697Y-84374366D01*
X88346687Y-84374364D01*
X88176785Y-84359500D01*
X88176784Y-84359500D01*
X88063216Y-84359500D01*
X88063215Y-84359500D01*
X87893312Y-84374364D01*
X87893302Y-84374366D01*
X87673511Y-84433258D01*
X87673502Y-84433261D01*
X87493299Y-84517292D01*
X87479666Y-84523650D01*
X87467262Y-84529434D01*
X87370989Y-84596844D01*
X87304782Y-84619172D01*
X87237015Y-84602160D01*
X87212185Y-84582950D01*
X80687590Y-78058355D01*
X80687588Y-78058352D01*
X80568717Y-77939481D01*
X80568716Y-77939480D01*
X80481904Y-77889360D01*
X80481904Y-77889359D01*
X80481900Y-77889358D01*
X80431785Y-77860423D01*
X80279057Y-77819499D01*
X80120943Y-77819499D01*
X80113347Y-77819499D01*
X80113331Y-77819500D01*
X74572940Y-77819500D01*
X74505901Y-77799815D01*
X74485263Y-77783185D01*
X74430289Y-77728211D01*
X74430288Y-77728210D01*
X74430287Y-77728209D01*
X74299185Y-77640609D01*
X74299172Y-77640602D01*
X74153501Y-77580264D01*
X74153489Y-77580261D01*
X73998845Y-77549500D01*
X73998842Y-77549500D01*
X73841158Y-77549500D01*
X73841155Y-77549500D01*
X73686510Y-77580261D01*
X73686498Y-77580264D01*
X73540827Y-77640602D01*
X73540814Y-77640609D01*
X73409711Y-77728210D01*
X73409707Y-77728213D01*
X73298213Y-77839707D01*
X73298210Y-77839711D01*
X73236443Y-77932152D01*
X73182831Y-77976957D01*
X73113506Y-77985664D01*
X73085889Y-77977822D01*
X73043501Y-77960264D01*
X73043489Y-77960261D01*
X72888845Y-77929500D01*
X72888842Y-77929500D01*
X72731158Y-77929500D01*
X72731155Y-77929500D01*
X72576510Y-77960261D01*
X72576498Y-77960264D01*
X72430827Y-78020602D01*
X72430814Y-78020609D01*
X72299711Y-78108210D01*
X72299707Y-78108213D01*
X72188213Y-78219707D01*
X72188210Y-78219711D01*
X72100609Y-78350814D01*
X72100602Y-78350827D01*
X72040264Y-78496498D01*
X72040261Y-78496510D01*
X72009500Y-78651153D01*
X68792542Y-78651153D01*
X68769738Y-78536510D01*
X68769737Y-78536503D01*
X68769735Y-78536498D01*
X68709397Y-78390827D01*
X68709390Y-78390814D01*
X68621789Y-78259711D01*
X68621786Y-78259707D01*
X68510292Y-78148213D01*
X68510288Y-78148210D01*
X68379185Y-78060609D01*
X68379172Y-78060602D01*
X68233501Y-78000264D01*
X68233489Y-78000261D01*
X68078845Y-77969500D01*
X68078842Y-77969500D01*
X67921158Y-77969500D01*
X67921155Y-77969500D01*
X67766510Y-78000261D01*
X67766498Y-78000264D01*
X67620827Y-78060602D01*
X67620814Y-78060609D01*
X67489711Y-78148210D01*
X67489707Y-78148213D01*
X67378213Y-78259707D01*
X67378210Y-78259711D01*
X67290609Y-78390814D01*
X67290602Y-78390827D01*
X67230264Y-78536498D01*
X67230261Y-78536510D01*
X67199500Y-78691153D01*
X67199500Y-78848846D01*
X67230261Y-79003489D01*
X67230264Y-79003501D01*
X67290602Y-79149172D01*
X67290609Y-79149185D01*
X67378210Y-79280288D01*
X67378213Y-79280292D01*
X67489707Y-79391786D01*
X67489711Y-79391789D01*
X67620814Y-79479390D01*
X67620827Y-79479397D01*
X67734541Y-79526498D01*
X67766503Y-79539737D01*
X67831147Y-79552595D01*
X67921849Y-79570638D01*
X67983760Y-79603023D01*
X67985339Y-79604574D01*
X80478583Y-92097819D01*
X80512068Y-92159142D01*
X80507084Y-92228834D01*
X80465212Y-92284767D01*
X80399748Y-92309184D01*
X80390902Y-92309500D01*
X79073215Y-92309500D01*
X78903312Y-92324364D01*
X78903302Y-92324366D01*
X78683511Y-92383258D01*
X78683502Y-92383261D01*
X78477267Y-92479431D01*
X78477265Y-92479432D01*
X78290858Y-92609954D01*
X78129954Y-92770858D01*
X77999432Y-92957265D01*
X77999431Y-92957267D01*
X77903261Y-93163502D01*
X77903258Y-93163511D01*
X77844366Y-93383302D01*
X77844364Y-93383312D01*
X77829500Y-93553214D01*
X77829500Y-93666785D01*
X77844364Y-93836687D01*
X77844366Y-93836697D01*
X77903258Y-94056488D01*
X77903261Y-94056497D01*
X77999431Y-94262732D01*
X77999432Y-94262734D01*
X78129954Y-94449141D01*
X78290858Y-94610045D01*
X78319210Y-94629897D01*
X78477266Y-94740568D01*
X78528655Y-94764531D01*
X78581095Y-94810703D01*
X78600247Y-94877896D01*
X78580032Y-94944778D01*
X78534705Y-94986271D01*
X78484288Y-95013219D01*
X78470217Y-95020741D01*
X78470214Y-95020742D01*
X78470200Y-95020751D01*
X78339206Y-95108278D01*
X78339194Y-95108287D01*
X78339189Y-95108290D01*
X78339189Y-95108291D01*
X78262588Y-95171157D01*
X78262585Y-95171160D01*
X78262582Y-95171162D01*
X78151162Y-95282582D01*
X78151160Y-95282585D01*
X78151157Y-95282588D01*
X78105508Y-95338211D01*
X78088287Y-95359194D01*
X78088278Y-95359206D01*
X78000751Y-95490200D01*
X78000734Y-95490228D01*
X77954031Y-95577603D01*
X77954029Y-95577608D01*
X77893722Y-95723200D01*
X77882497Y-95760206D01*
X77864956Y-95818032D01*
X77864955Y-95818036D01*
X77864955Y-95818037D01*
X77834211Y-95972599D01*
X77834211Y-95972602D01*
X77830642Y-96008842D01*
X77824500Y-96071207D01*
X77824500Y-96228793D01*
X77826890Y-96253056D01*
X77834211Y-96327397D01*
X77834211Y-96327400D01*
X77834213Y-96327410D01*
X77864956Y-96481968D01*
X77876555Y-96520205D01*
X77893722Y-96576799D01*
X77954029Y-96722391D01*
X77954031Y-96722396D01*
X78000734Y-96809771D01*
X78000751Y-96809799D01*
X78088278Y-96940793D01*
X78088286Y-96940804D01*
X78088291Y-96940811D01*
X78151157Y-97017412D01*
X78262588Y-97128843D01*
X78339189Y-97191709D01*
X78339198Y-97191715D01*
X78339206Y-97191721D01*
X78470200Y-97279248D01*
X78470205Y-97279251D01*
X78470217Y-97279259D01*
X78470226Y-97279263D01*
X78470228Y-97279265D01*
X78534704Y-97313728D01*
X78584548Y-97362690D01*
X78600009Y-97430828D01*
X78576178Y-97496507D01*
X78528657Y-97535468D01*
X78477264Y-97559433D01*
X78290858Y-97689954D01*
X78129954Y-97850858D01*
X77999432Y-98037265D01*
X77999431Y-98037267D01*
X77903261Y-98243502D01*
X77903258Y-98243511D01*
X77844366Y-98463302D01*
X77844364Y-98463312D01*
X77829500Y-98633214D01*
X77829500Y-98746785D01*
X77844364Y-98916687D01*
X77844366Y-98916697D01*
X77903258Y-99136488D01*
X77903261Y-99136497D01*
X77999431Y-99342732D01*
X77999432Y-99342734D01*
X78129954Y-99529141D01*
X78290858Y-99690045D01*
X78290861Y-99690047D01*
X78477266Y-99820568D01*
X78683504Y-99916739D01*
X78903308Y-99975635D01*
X79073214Y-99990499D01*
X79073215Y-99990500D01*
X79073216Y-99990500D01*
X80786785Y-99990500D01*
X80786785Y-99990499D01*
X80956692Y-99975635D01*
X81176496Y-99916739D01*
X81382734Y-99820568D01*
X81569139Y-99690047D01*
X81730047Y-99529139D01*
X81860568Y-99342734D01*
X81956739Y-99136496D01*
X82015635Y-98916692D01*
X82030500Y-98746784D01*
X82030500Y-98633216D01*
X82015635Y-98463308D01*
X81956739Y-98243504D01*
X81860568Y-98037266D01*
X81730047Y-97850861D01*
X81730045Y-97850858D01*
X81569141Y-97689954D01*
X81503155Y-97643751D01*
X81459530Y-97589175D01*
X81452336Y-97519677D01*
X81483858Y-97457322D01*
X81543612Y-97422028D01*
X81563226Y-97417022D01*
X81636735Y-97386574D01*
X81685551Y-97363219D01*
X81800733Y-97276994D01*
X81856994Y-97220733D01*
X81893157Y-97180475D01*
X81966574Y-97056735D01*
X81997022Y-96983226D01*
X82015024Y-96932198D01*
X82035500Y-96789782D01*
X82035500Y-95510218D01*
X82032604Y-95456185D01*
X81997022Y-95316774D01*
X81986323Y-95290945D01*
X81966580Y-95243280D01*
X81966568Y-95243252D01*
X81943220Y-95194451D01*
X81943217Y-95194446D01*
X81912901Y-95153949D01*
X81856994Y-95079267D01*
X81856989Y-95079262D01*
X81856984Y-95079256D01*
X81800747Y-95023019D01*
X81798222Y-95020751D01*
X81760475Y-94986843D01*
X81760467Y-94986837D01*
X81636736Y-94913426D01*
X81636737Y-94913426D01*
X81578923Y-94889480D01*
X81563226Y-94882978D01*
X81554184Y-94879788D01*
X81535337Y-94873139D01*
X81478666Y-94832272D01*
X81453085Y-94767253D01*
X81466717Y-94698726D01*
X81505467Y-94654629D01*
X81569139Y-94610047D01*
X81730047Y-94449139D01*
X81860568Y-94262734D01*
X81956739Y-94056496D01*
X82002697Y-93884974D01*
X82039062Y-93825315D01*
X82101908Y-93794786D01*
X82171284Y-93803080D01*
X82210152Y-93829387D01*
X87267022Y-98886258D01*
X92303107Y-103922343D01*
X92336592Y-103983666D01*
X92331608Y-104053358D01*
X92303108Y-104097705D01*
X92199951Y-104200862D01*
X92069432Y-104387265D01*
X92069431Y-104387267D01*
X92042382Y-104445275D01*
X91996209Y-104497714D01*
X91929016Y-104516866D01*
X91862135Y-104496650D01*
X91817618Y-104445275D01*
X91793475Y-104393501D01*
X91790568Y-104387266D01*
X91660047Y-104200861D01*
X91660045Y-104200858D01*
X91499141Y-104039954D01*
X91312734Y-103909432D01*
X91312732Y-103909431D01*
X91106497Y-103813261D01*
X91106488Y-103813258D01*
X90886697Y-103754366D01*
X90886687Y-103754364D01*
X90716785Y-103739500D01*
X90716784Y-103739500D01*
X90603216Y-103739500D01*
X90603215Y-103739500D01*
X90433312Y-103754364D01*
X90433302Y-103754366D01*
X90213511Y-103813258D01*
X90213502Y-103813261D01*
X90007267Y-103909431D01*
X90007265Y-103909432D01*
X89820858Y-104039954D01*
X89659954Y-104200858D01*
X89529432Y-104387265D01*
X89529431Y-104387267D01*
X89502382Y-104445275D01*
X89456209Y-104497714D01*
X89389016Y-104516866D01*
X89322135Y-104496650D01*
X89277618Y-104445275D01*
X89253475Y-104393501D01*
X89250568Y-104387266D01*
X89120047Y-104200861D01*
X89120045Y-104200858D01*
X88959141Y-104039954D01*
X88772734Y-103909432D01*
X88772732Y-103909431D01*
X88566497Y-103813261D01*
X88566488Y-103813258D01*
X88346697Y-103754366D01*
X88346687Y-103754364D01*
X88176785Y-103739500D01*
X88176784Y-103739500D01*
X88063216Y-103739500D01*
X88063215Y-103739500D01*
X87893312Y-103754364D01*
X87893302Y-103754366D01*
X87673511Y-103813258D01*
X87673502Y-103813261D01*
X87467267Y-103909431D01*
X87467265Y-103909432D01*
X87280858Y-104039954D01*
X87119954Y-104200858D01*
X86989432Y-104387265D01*
X86989431Y-104387267D01*
X86893261Y-104593502D01*
X86893258Y-104593511D01*
X86834366Y-104813302D01*
X86834364Y-104813312D01*
X86819500Y-104983214D01*
X86819500Y-106696785D01*
X86834364Y-106866687D01*
X86834366Y-106866697D01*
X86866978Y-106988407D01*
X86865315Y-107058257D01*
X86826152Y-107116119D01*
X86761924Y-107143623D01*
X86747203Y-107144500D01*
X84412797Y-107144500D01*
X84345758Y-107124815D01*
X84300003Y-107072011D01*
X84290059Y-107002853D01*
X84293022Y-106988407D01*
X84310000Y-106925042D01*
X84325635Y-106866692D01*
X84340500Y-106696784D01*
X84340500Y-104983216D01*
X84325635Y-104813308D01*
X84267834Y-104597590D01*
X84266741Y-104593511D01*
X84266738Y-104593502D01*
X84265348Y-104590521D01*
X84170568Y-104387266D01*
X84040047Y-104200861D01*
X84040045Y-104200858D01*
X83879141Y-104039954D01*
X83692734Y-103909432D01*
X83692732Y-103909431D01*
X83486497Y-103813261D01*
X83486488Y-103813258D01*
X83266697Y-103754366D01*
X83266687Y-103754364D01*
X83096785Y-103739500D01*
X83096784Y-103739500D01*
X82983216Y-103739500D01*
X82983215Y-103739500D01*
X82813312Y-103754364D01*
X82813302Y-103754366D01*
X82593511Y-103813258D01*
X82593502Y-103813261D01*
X82387267Y-103909431D01*
X82387265Y-103909432D01*
X82200858Y-104039954D01*
X82039954Y-104200858D01*
X81909432Y-104387265D01*
X81909431Y-104387267D01*
X81882382Y-104445275D01*
X81836209Y-104497714D01*
X81769016Y-104516866D01*
X81702135Y-104496650D01*
X81657618Y-104445275D01*
X81633475Y-104393501D01*
X81630568Y-104387266D01*
X81500047Y-104200861D01*
X81500045Y-104200858D01*
X81339141Y-104039954D01*
X81152734Y-103909432D01*
X81152732Y-103909431D01*
X80946497Y-103813261D01*
X80946488Y-103813258D01*
X80726697Y-103754366D01*
X80726687Y-103754364D01*
X80556785Y-103739500D01*
X80556784Y-103739500D01*
X80443216Y-103739500D01*
X80443215Y-103739500D01*
X80273312Y-103754364D01*
X80273302Y-103754366D01*
X80053511Y-103813258D01*
X80053502Y-103813261D01*
X79847267Y-103909431D01*
X79847265Y-103909432D01*
X79660858Y-104039954D01*
X79499954Y-104200858D01*
X79369432Y-104387265D01*
X79369431Y-104387267D01*
X79273261Y-104593502D01*
X79273258Y-104593511D01*
X79214366Y-104813302D01*
X79214364Y-104813312D01*
X79199500Y-104983214D01*
X79199500Y-106696785D01*
X79214364Y-106866687D01*
X79214366Y-106866697D01*
X79246978Y-106988407D01*
X79245315Y-107058257D01*
X79206152Y-107116119D01*
X79141924Y-107143623D01*
X79127203Y-107144500D01*
X66115097Y-107144500D01*
X66048058Y-107124815D01*
X66027416Y-107108181D01*
X62816819Y-103897584D01*
X62783334Y-103836261D01*
X62780500Y-103809903D01*
X62780500Y-98639765D01*
X62800185Y-98572726D01*
X62801398Y-98570874D01*
X62873276Y-98463302D01*
X62889394Y-98439179D01*
X62949737Y-98293497D01*
X62959680Y-98243511D01*
X62976231Y-98160308D01*
X63008616Y-98098397D01*
X63069332Y-98063823D01*
X63097848Y-98060500D01*
X67107770Y-98060500D01*
X67174809Y-98080185D01*
X67195451Y-98096819D01*
X72671586Y-103572954D01*
X72699852Y-103591840D01*
X72713987Y-103601284D01*
X72794505Y-103655084D01*
X72931087Y-103711658D01*
X72931091Y-103711658D01*
X72931092Y-103711659D01*
X73076079Y-103740500D01*
X73076082Y-103740500D01*
X73076083Y-103740500D01*
X73223917Y-103740500D01*
X74095396Y-103740500D01*
X74142844Y-103749937D01*
X74166503Y-103759737D01*
X74166508Y-103759738D01*
X74166511Y-103759739D01*
X74321153Y-103790499D01*
X74321156Y-103790500D01*
X74321158Y-103790500D01*
X74478844Y-103790500D01*
X74478845Y-103790499D01*
X74633497Y-103759737D01*
X74779179Y-103699394D01*
X74910289Y-103611789D01*
X75021789Y-103500289D01*
X75109394Y-103369179D01*
X75163856Y-103237692D01*
X75207696Y-103183290D01*
X75273990Y-103161225D01*
X75341690Y-103178504D01*
X75366098Y-103197465D01*
X76643926Y-104475293D01*
X76670805Y-104515519D01*
X76680603Y-104539172D01*
X76680606Y-104539178D01*
X76680609Y-104539185D01*
X76768210Y-104670288D01*
X76768213Y-104670292D01*
X76879707Y-104781786D01*
X76879711Y-104781789D01*
X77010814Y-104869390D01*
X77010827Y-104869397D01*
X77156498Y-104929735D01*
X77156503Y-104929737D01*
X77311153Y-104960499D01*
X77311156Y-104960500D01*
X77311158Y-104960500D01*
X77468844Y-104960500D01*
X77468845Y-104960499D01*
X77623497Y-104929737D01*
X77769179Y-104869394D01*
X77900289Y-104781789D01*
X78011789Y-104670289D01*
X78099394Y-104539179D01*
X78159737Y-104393497D01*
X78190500Y-104238842D01*
X78190500Y-104081158D01*
X78190500Y-104081155D01*
X78190499Y-104081153D01*
X78159737Y-103926503D01*
X78151338Y-103906225D01*
X78099397Y-103780827D01*
X78099390Y-103780814D01*
X78011789Y-103649711D01*
X78011786Y-103649707D01*
X77900292Y-103538213D01*
X77900288Y-103538210D01*
X77769185Y-103450609D01*
X77769180Y-103450607D01*
X77769179Y-103450606D01*
X77745519Y-103440805D01*
X77705293Y-103413926D01*
X74596819Y-100305451D01*
X74563334Y-100244128D01*
X74560500Y-100217770D01*
X74560500Y-92356080D01*
X74554191Y-92324364D01*
X74539026Y-92248127D01*
X74531659Y-92211088D01*
X74476267Y-92077362D01*
X74475424Y-92075014D01*
X74401731Y-91964723D01*
X74401731Y-91964724D01*
X74392952Y-91951585D01*
X74289577Y-91848210D01*
X73798421Y-91357052D01*
X73798420Y-91357051D01*
X73798255Y-91356941D01*
X73697676Y-91289737D01*
X73697676Y-91289736D01*
X73675495Y-91274916D01*
X73675490Y-91274913D01*
X73538917Y-91218343D01*
X73538907Y-91218340D01*
X73393920Y-91189500D01*
X73393918Y-91189500D01*
X72294604Y-91189500D01*
X72247155Y-91180062D01*
X72223497Y-91170263D01*
X72223493Y-91170262D01*
X72223488Y-91170260D01*
X72068845Y-91139500D01*
X72068842Y-91139500D01*
X71911158Y-91139500D01*
X71911155Y-91139500D01*
X71756510Y-91170261D01*
X71756498Y-91170264D01*
X71610827Y-91230602D01*
X71610814Y-91230609D01*
X71479711Y-91318210D01*
X71479707Y-91318213D01*
X71368213Y-91429707D01*
X71368210Y-91429711D01*
X71280609Y-91560814D01*
X71280602Y-91560827D01*
X71220264Y-91706498D01*
X71220261Y-91706510D01*
X71189500Y-91861153D01*
X71189500Y-92018846D01*
X71220261Y-92173489D01*
X71220264Y-92173501D01*
X71280602Y-92319172D01*
X71280609Y-92319185D01*
X71368210Y-92450288D01*
X71368213Y-92450292D01*
X71479707Y-92561786D01*
X71479711Y-92561789D01*
X71610814Y-92649390D01*
X71610827Y-92649397D01*
X71710060Y-92690500D01*
X71756503Y-92709737D01*
X71911153Y-92740499D01*
X71911156Y-92740500D01*
X71911158Y-92740500D01*
X72068844Y-92740500D01*
X72068845Y-92740499D01*
X72186084Y-92717179D01*
X72223488Y-92709739D01*
X72223489Y-92709738D01*
X72223497Y-92709737D01*
X72247155Y-92699937D01*
X72294604Y-92690500D01*
X72935500Y-92690500D01*
X73002539Y-92710185D01*
X73048294Y-92762989D01*
X73059500Y-92814500D01*
X73059500Y-100653918D01*
X73059500Y-100653920D01*
X73059499Y-100653920D01*
X73088340Y-100798907D01*
X73088343Y-100798917D01*
X73144914Y-100935492D01*
X73177812Y-100984727D01*
X73177813Y-100984730D01*
X73227046Y-101058414D01*
X73227052Y-101058421D01*
X74192533Y-102023902D01*
X74208254Y-102052693D01*
X74225000Y-102080915D01*
X74224918Y-102083210D01*
X74226018Y-102085225D01*
X74223677Y-102117948D01*
X74222507Y-102150740D01*
X74221197Y-102152625D01*
X74221034Y-102154917D01*
X74201369Y-102181184D01*
X74182660Y-102208133D01*
X74180025Y-102209695D01*
X74179162Y-102210850D01*
X74152307Y-102226143D01*
X74142851Y-102230060D01*
X74095396Y-102239500D01*
X73512230Y-102239500D01*
X73445191Y-102219815D01*
X73424549Y-102203181D01*
X67948421Y-96727052D01*
X67948414Y-96727046D01*
X67874729Y-96677812D01*
X67874729Y-96677813D01*
X67825491Y-96644913D01*
X67688917Y-96588343D01*
X67688907Y-96588340D01*
X67543920Y-96559500D01*
X67543918Y-96559500D01*
X61795421Y-96559500D01*
X61795419Y-96559500D01*
X61650431Y-96588340D01*
X61650421Y-96588343D01*
X61513850Y-96644912D01*
X61513837Y-96644919D01*
X61390923Y-96727048D01*
X61390919Y-96727051D01*
X59127047Y-98990923D01*
X59115225Y-99008617D01*
X59103454Y-99026235D01*
X59074084Y-99070189D01*
X59044914Y-99113846D01*
X58988343Y-99250421D01*
X58988340Y-99250431D01*
X58959500Y-99395418D01*
X58959500Y-108287770D01*
X58950855Y-108317208D01*
X58944329Y-108347203D01*
X58940576Y-108352214D01*
X58939815Y-108354809D01*
X58923176Y-108375456D01*
X58914699Y-108383932D01*
X58874478Y-108410806D01*
X58850826Y-108420603D01*
X58850814Y-108420609D01*
X58719711Y-108508210D01*
X58719707Y-108508213D01*
X58608213Y-108619707D01*
X58608210Y-108619711D01*
X58520609Y-108750814D01*
X58520602Y-108750827D01*
X58460264Y-108896498D01*
X58460261Y-108896510D01*
X58429500Y-109051153D01*
X58429500Y-109208846D01*
X58460261Y-109363489D01*
X58460264Y-109363501D01*
X58520602Y-109509172D01*
X58520609Y-109509185D01*
X58608210Y-109640288D01*
X58608213Y-109640292D01*
X58719707Y-109751786D01*
X58719711Y-109751789D01*
X58850814Y-109839390D01*
X58850827Y-109839397D01*
X58996498Y-109899735D01*
X58996503Y-109899737D01*
X59151153Y-109930499D01*
X59151156Y-109930500D01*
X59151158Y-109930500D01*
X59308844Y-109930500D01*
X59308845Y-109930499D01*
X59463497Y-109899737D01*
X59609179Y-109839394D01*
X59740289Y-109751789D01*
X59851789Y-109640289D01*
X59939394Y-109509179D01*
X59949192Y-109485521D01*
X59976067Y-109445298D01*
X60292952Y-109128415D01*
X60344573Y-109051158D01*
X60375084Y-109005495D01*
X60414189Y-108911088D01*
X60431659Y-108868912D01*
X60460500Y-108723917D01*
X60460500Y-108576082D01*
X60460500Y-99831568D01*
X60480185Y-99764529D01*
X60496819Y-99743887D01*
X61367819Y-98872887D01*
X61429142Y-98839402D01*
X61498834Y-98844386D01*
X61554767Y-98886258D01*
X61579184Y-98951722D01*
X61579500Y-98960568D01*
X61579500Y-104023330D01*
X61579499Y-104023348D01*
X61579499Y-104189054D01*
X61579498Y-104189054D01*
X61595611Y-104249189D01*
X61620423Y-104341785D01*
X61640208Y-104376053D01*
X61650282Y-104393501D01*
X61699479Y-104478714D01*
X61699481Y-104478717D01*
X61818349Y-104597585D01*
X61818355Y-104597590D01*
X65330139Y-108109374D01*
X65330149Y-108109385D01*
X65334479Y-108113715D01*
X65334480Y-108113716D01*
X65446284Y-108225520D01*
X65446286Y-108225521D01*
X65446290Y-108225524D01*
X65516667Y-108266156D01*
X65516671Y-108266157D01*
X65516672Y-108266158D01*
X65549943Y-108285367D01*
X65583212Y-108304576D01*
X65583214Y-108304576D01*
X65583215Y-108304577D01*
X65735942Y-108345500D01*
X65735943Y-108345500D01*
X74363059Y-108345500D01*
X74430098Y-108365185D01*
X74475853Y-108417989D01*
X74485797Y-108487147D01*
X74456772Y-108550703D01*
X74450740Y-108557181D01*
X74408213Y-108599707D01*
X74408210Y-108599711D01*
X74320609Y-108730814D01*
X74320602Y-108730827D01*
X74260264Y-108876498D01*
X74260261Y-108876510D01*
X74229500Y-109031153D01*
X74229500Y-109188846D01*
X74260261Y-109343489D01*
X74260264Y-109343501D01*
X74320602Y-109489172D01*
X74320609Y-109489185D01*
X74408210Y-109620288D01*
X74408213Y-109620292D01*
X74519707Y-109731786D01*
X74519711Y-109731789D01*
X74650814Y-109819390D01*
X74650827Y-109819397D01*
X74796498Y-109879735D01*
X74796503Y-109879737D01*
X74951153Y-109910499D01*
X74951156Y-109910500D01*
X74951158Y-109910500D01*
X75108844Y-109910500D01*
X75108845Y-109910499D01*
X75263497Y-109879737D01*
X75409179Y-109819394D01*
X75409185Y-109819390D01*
X75540875Y-109731398D01*
X75607553Y-109710520D01*
X75609766Y-109710500D01*
X125403331Y-109710500D01*
X125403347Y-109710501D01*
X125410943Y-109710501D01*
X125569054Y-109710501D01*
X125569057Y-109710501D01*
X125721785Y-109669577D01*
X125772513Y-109640289D01*
X125858716Y-109590520D01*
X125970520Y-109478716D01*
X125970520Y-109478714D01*
X125980724Y-109468511D01*
X125980727Y-109468506D01*
X127609041Y-107840193D01*
X127670362Y-107806710D01*
X127740054Y-107811694D01*
X127759991Y-107821233D01*
X127853265Y-107876574D01*
X127926774Y-107907022D01*
X127977802Y-107925024D01*
X128120218Y-107945500D01*
X128120221Y-107945500D01*
X129399784Y-107945500D01*
X129435804Y-107943569D01*
X129453815Y-107942604D01*
X129593226Y-107907022D01*
X129666735Y-107876574D01*
X129715551Y-107853219D01*
X129830733Y-107766994D01*
X129886994Y-107710733D01*
X129920486Y-107673447D01*
X129979929Y-107636729D01*
X130049788Y-107637977D01*
X130107882Y-107676795D01*
X130135767Y-107740858D01*
X130128303Y-107801253D01*
X129876174Y-108449601D01*
X129874104Y-108454600D01*
X129533632Y-109228381D01*
X129531345Y-109233284D01*
X129157466Y-109991436D01*
X129154968Y-109996235D01*
X128748363Y-110737379D01*
X128745658Y-110742064D01*
X128307115Y-111464761D01*
X128304208Y-111469324D01*
X127834555Y-112172210D01*
X127831452Y-112176641D01*
X127331606Y-112858345D01*
X127328313Y-112862638D01*
X126799169Y-113521937D01*
X126795691Y-113526081D01*
X126238326Y-114161634D01*
X126234671Y-114165623D01*
X125650099Y-114776274D01*
X125646274Y-114780099D01*
X125035623Y-115364671D01*
X125031634Y-115368326D01*
X124396081Y-115925691D01*
X124391937Y-115929169D01*
X123732638Y-116458313D01*
X123728345Y-116461606D01*
X123046641Y-116961452D01*
X123042210Y-116964555D01*
X122339324Y-117434208D01*
X122334761Y-117437115D01*
X121612064Y-117875658D01*
X121607379Y-117878363D01*
X120866235Y-118284968D01*
X120861436Y-118287466D01*
X120103284Y-118661345D01*
X120098381Y-118663632D01*
X119324600Y-119004104D01*
X119319601Y-119006174D01*
X118531735Y-119312559D01*
X118526651Y-119314409D01*
X117726182Y-119586131D01*
X117721023Y-119587758D01*
X116909433Y-119824315D01*
X116904207Y-119825715D01*
X116083092Y-120026640D01*
X116077810Y-120027811D01*
X115248718Y-120192728D01*
X115243390Y-120193668D01*
X114407868Y-120322267D01*
X114402505Y-120322973D01*
X113562192Y-120415003D01*
X113556802Y-120415475D01*
X112713233Y-120470765D01*
X112707828Y-120471000D01*
X111861375Y-120489470D01*
X111858670Y-120489500D01*
X51861330Y-120489500D01*
X51858625Y-120489470D01*
X51012171Y-120471000D01*
X51006766Y-120470765D01*
X50163197Y-120415475D01*
X50157807Y-120415003D01*
X49317494Y-120322973D01*
X49312131Y-120322267D01*
X48476609Y-120193668D01*
X48471281Y-120192728D01*
X47642189Y-120027811D01*
X47636907Y-120026640D01*
X46815792Y-119825715D01*
X46810566Y-119824315D01*
X45998976Y-119587758D01*
X45993817Y-119586131D01*
X45193348Y-119314409D01*
X45188264Y-119312559D01*
X44400398Y-119006174D01*
X44395399Y-119004104D01*
X43621618Y-118663632D01*
X43616715Y-118661345D01*
X42858563Y-118287466D01*
X42853764Y-118284968D01*
X42112620Y-117878363D01*
X42107935Y-117875658D01*
X41385238Y-117437115D01*
X41380675Y-117434208D01*
X40947843Y-117144999D01*
X40677780Y-116964548D01*
X40673358Y-116961452D01*
X40553621Y-116873657D01*
X39991643Y-116461597D01*
X39987372Y-116458322D01*
X39328051Y-115929160D01*
X39323918Y-115925691D01*
X39265272Y-115874260D01*
X38850243Y-115510289D01*
X38688365Y-115368326D01*
X38684376Y-115364671D01*
X38503382Y-115191407D01*
X38413103Y-115104983D01*
X57249500Y-115104983D01*
X57249500Y-116455001D01*
X57249501Y-116455018D01*
X57260000Y-116557796D01*
X57260001Y-116557799D01*
X57315185Y-116724331D01*
X57315186Y-116724334D01*
X57407288Y-116873656D01*
X57531344Y-116997712D01*
X57680666Y-117089814D01*
X57847203Y-117144999D01*
X57949991Y-117155500D01*
X58750008Y-117155499D01*
X58750016Y-117155498D01*
X58750019Y-117155498D01*
X58806302Y-117149748D01*
X58852797Y-117144999D01*
X59019334Y-117089814D01*
X59168656Y-116997712D01*
X59292712Y-116873656D01*
X59384814Y-116724334D01*
X59439999Y-116557797D01*
X59450500Y-116455009D01*
X59450499Y-115104992D01*
X59439999Y-115002203D01*
X59384814Y-114835666D01*
X59292712Y-114686344D01*
X59168656Y-114562288D01*
X59019334Y-114470186D01*
X58852797Y-114415001D01*
X58852795Y-114415000D01*
X58750010Y-114404500D01*
X57949998Y-114404500D01*
X57949980Y-114404501D01*
X57847203Y-114415000D01*
X57847200Y-114415001D01*
X57680668Y-114470185D01*
X57680663Y-114470187D01*
X57531342Y-114562289D01*
X57407289Y-114686342D01*
X57315187Y-114835663D01*
X57315186Y-114835666D01*
X57260001Y-115002203D01*
X57260001Y-115002204D01*
X57260000Y-115002204D01*
X57249500Y-115104983D01*
X38413103Y-115104983D01*
X38073725Y-114780099D01*
X38069900Y-114776274D01*
X37670170Y-114358711D01*
X94729500Y-114358711D01*
X94729500Y-114601288D01*
X94761161Y-114841785D01*
X94823947Y-115076104D01*
X94916773Y-115300205D01*
X94916776Y-115300212D01*
X95038064Y-115510289D01*
X95038066Y-115510292D01*
X95038067Y-115510293D01*
X95185733Y-115702736D01*
X95185739Y-115702743D01*
X95357256Y-115874260D01*
X95357262Y-115874265D01*
X95549711Y-116021936D01*
X95759788Y-116143224D01*
X95983900Y-116236054D01*
X96218211Y-116298838D01*
X96398586Y-116322584D01*
X96458711Y-116330500D01*
X96458712Y-116330500D01*
X96701289Y-116330500D01*
X96749388Y-116324167D01*
X96941789Y-116298838D01*
X97176100Y-116236054D01*
X97400212Y-116143224D01*
X97610289Y-116021936D01*
X97802738Y-115874265D01*
X97974265Y-115702738D01*
X98121936Y-115510289D01*
X98243224Y-115300212D01*
X98336054Y-115076100D01*
X98398838Y-114841789D01*
X98430500Y-114601288D01*
X98430500Y-114358712D01*
X98398838Y-114118211D01*
X98336054Y-113883900D01*
X98243224Y-113659788D01*
X98121936Y-113449711D01*
X97974265Y-113257262D01*
X97974260Y-113257256D01*
X97802743Y-113085739D01*
X97802736Y-113085733D01*
X97610293Y-112938067D01*
X97610292Y-112938066D01*
X97610289Y-112938064D01*
X97400212Y-112816776D01*
X97400205Y-112816773D01*
X97176104Y-112723947D01*
X96941785Y-112661161D01*
X96701289Y-112629500D01*
X96701288Y-112629500D01*
X96458712Y-112629500D01*
X96458711Y-112629500D01*
X96218214Y-112661161D01*
X95983895Y-112723947D01*
X95759794Y-112816773D01*
X95759785Y-112816777D01*
X95549706Y-112938067D01*
X95357263Y-113085733D01*
X95357256Y-113085739D01*
X95185739Y-113257256D01*
X95185733Y-113257263D01*
X95038067Y-113449706D01*
X94916777Y-113659785D01*
X94916773Y-113659794D01*
X94823947Y-113883895D01*
X94761161Y-114118214D01*
X94729500Y-114358711D01*
X37670170Y-114358711D01*
X37485328Y-114165623D01*
X37481673Y-114161634D01*
X37238107Y-113883900D01*
X36924296Y-113526066D01*
X36920843Y-113521952D01*
X36391672Y-112862620D01*
X36388407Y-112858363D01*
X35888534Y-112176623D01*
X35885457Y-112172228D01*
X35415782Y-111469311D01*
X35412884Y-111464761D01*
X35354138Y-111367951D01*
X34974337Y-110742058D01*
X34971636Y-110737379D01*
X34565031Y-109996235D01*
X34562533Y-109991436D01*
X34188654Y-109233284D01*
X34186367Y-109228381D01*
X33918544Y-108619707D01*
X33845892Y-108454592D01*
X33843825Y-108449601D01*
X33832551Y-108420609D01*
X33537436Y-107661724D01*
X33535590Y-107656651D01*
X33529641Y-107639127D01*
X33263867Y-106856179D01*
X33262241Y-106851023D01*
X33217285Y-106696785D01*
X33025681Y-106039424D01*
X33024284Y-106034207D01*
X32823359Y-105213092D01*
X32822188Y-105207810D01*
X32703913Y-104613202D01*
X32657270Y-104378713D01*
X32656331Y-104373390D01*
X32637217Y-104249206D01*
X32527730Y-103537856D01*
X32527026Y-103532505D01*
X32518057Y-103450606D01*
X32434993Y-102692165D01*
X32434526Y-102686830D01*
X32379233Y-101843212D01*
X32378999Y-101837828D01*
X32369996Y-101425229D01*
X32360530Y-100991374D01*
X32360500Y-100988669D01*
X32360500Y-95578711D01*
X40679500Y-95578711D01*
X40679500Y-95821288D01*
X40711161Y-96061785D01*
X40773947Y-96296104D01*
X40814623Y-96394303D01*
X40866776Y-96520212D01*
X40988064Y-96730289D01*
X40988066Y-96730292D01*
X40988067Y-96730293D01*
X41135733Y-96922736D01*
X41135739Y-96922743D01*
X41307256Y-97094260D01*
X41307262Y-97094265D01*
X41499711Y-97241936D01*
X41709788Y-97363224D01*
X41867246Y-97428445D01*
X41932562Y-97455500D01*
X41933900Y-97456054D01*
X42168211Y-97518838D01*
X42348586Y-97542584D01*
X42408711Y-97550500D01*
X42408712Y-97550500D01*
X42651289Y-97550500D01*
X42699388Y-97544167D01*
X42891789Y-97518838D01*
X43126100Y-97456054D01*
X43350212Y-97363224D01*
X43560289Y-97241936D01*
X43752738Y-97094265D01*
X43924265Y-96922738D01*
X44071936Y-96730289D01*
X44193224Y-96520212D01*
X44286054Y-96296100D01*
X44348838Y-96061789D01*
X44380500Y-95821288D01*
X44380500Y-95578712D01*
X44348838Y-95338211D01*
X44286054Y-95103900D01*
X44193224Y-94879788D01*
X44071936Y-94669711D01*
X43947722Y-94507832D01*
X43924266Y-94477263D01*
X43924260Y-94477256D01*
X43752743Y-94305739D01*
X43752736Y-94305733D01*
X43560293Y-94158067D01*
X43560292Y-94158066D01*
X43560289Y-94158064D01*
X43350212Y-94036776D01*
X43350205Y-94036773D01*
X43126104Y-93943947D01*
X42891785Y-93881161D01*
X42651289Y-93849500D01*
X42651288Y-93849500D01*
X42408712Y-93849500D01*
X42408711Y-93849500D01*
X42168214Y-93881161D01*
X41933895Y-93943947D01*
X41709794Y-94036773D01*
X41709785Y-94036777D01*
X41499706Y-94158067D01*
X41307263Y-94305733D01*
X41307256Y-94305739D01*
X41135739Y-94477256D01*
X41135733Y-94477263D01*
X40988067Y-94669706D01*
X40866777Y-94879785D01*
X40866773Y-94879794D01*
X40773947Y-95103895D01*
X40711161Y-95338214D01*
X40679500Y-95578711D01*
X32360500Y-95578711D01*
X32360500Y-90991330D01*
X32360530Y-90988625D01*
X32362482Y-90899172D01*
X32378999Y-90142148D01*
X32379232Y-90136789D01*
X32434526Y-89293165D01*
X32434993Y-89287838D01*
X32527028Y-88447476D01*
X32527732Y-88442131D01*
X32529355Y-88431590D01*
X32656333Y-87606596D01*
X32657271Y-87601281D01*
X32680064Y-87486697D01*
X32822190Y-86772176D01*
X32823359Y-86766907D01*
X33008882Y-86008735D01*
X33024289Y-85945771D01*
X33025684Y-85940566D01*
X33033504Y-85913739D01*
X33262245Y-85128960D01*
X33263868Y-85123817D01*
X33267014Y-85114549D01*
X33535598Y-84323323D01*
X33537430Y-84318289D01*
X33843834Y-83530375D01*
X33845885Y-83525423D01*
X34186371Y-82751608D01*
X34188654Y-82746715D01*
X34246467Y-82629482D01*
X34562545Y-81988539D01*
X34565018Y-81983788D01*
X34971651Y-81242593D01*
X34974325Y-81237961D01*
X35412905Y-80515203D01*
X35415769Y-80510709D01*
X35885471Y-79807749D01*
X35888519Y-79803397D01*
X36388423Y-79121613D01*
X36391655Y-79117400D01*
X36920861Y-78458024D01*
X36924276Y-78453955D01*
X37481687Y-77818349D01*
X37485313Y-77814391D01*
X38069910Y-77203714D01*
X38073725Y-77199900D01*
X38077725Y-77196071D01*
X38684391Y-76615313D01*
X38688349Y-76611687D01*
X39323955Y-76054276D01*
X39328024Y-76050861D01*
X39987400Y-75521655D01*
X39991613Y-75518423D01*
X40673397Y-75018519D01*
X40677749Y-75015471D01*
X41380709Y-74545769D01*
X41385203Y-74542905D01*
X42107961Y-74104325D01*
X42112593Y-74101651D01*
X42853788Y-73695018D01*
X42858539Y-73692545D01*
X43616725Y-73318649D01*
X43621608Y-73316371D01*
X44395423Y-72975885D01*
X44400375Y-72973834D01*
X45188289Y-72667430D01*
X45193323Y-72665598D01*
X45993833Y-72393862D01*
X45998960Y-72392245D01*
X46810587Y-72155678D01*
X46815771Y-72154289D01*
X47636920Y-71953356D01*
X47642176Y-71952190D01*
X48471294Y-71787268D01*
X48476596Y-71786333D01*
X49312149Y-71657729D01*
X49317476Y-71657028D01*
X50157838Y-71564993D01*
X50163165Y-71564526D01*
X51006789Y-71509232D01*
X51012148Y-71508999D01*
X51858625Y-71490529D01*
X51861330Y-71490500D01*
X51925892Y-71490500D01*
X111794108Y-71490500D01*
X111858670Y-71490500D01*
X111861374Y-71490529D01*
G37*
%TD.AperFunction*%
%TA.AperFunction,Conductor*%
G36*
X114807127Y-87788012D02*
G01*
X114823990Y-87787879D01*
X114839875Y-87797910D01*
X114857865Y-87803348D01*
X114869199Y-87816429D01*
X114883066Y-87825186D01*
X114902381Y-87854724D01*
X114902382Y-87854725D01*
X114929429Y-87912728D01*
X114929432Y-87912734D01*
X115059954Y-88099141D01*
X115220858Y-88260045D01*
X115220861Y-88260047D01*
X115407266Y-88390568D01*
X115613504Y-88486739D01*
X115613509Y-88486740D01*
X115613511Y-88486741D01*
X115650205Y-88496573D01*
X115833308Y-88545635D01*
X116003214Y-88560499D01*
X116003215Y-88560500D01*
X116003216Y-88560500D01*
X116116785Y-88560500D01*
X116116785Y-88560499D01*
X116286692Y-88545635D01*
X116506496Y-88486739D01*
X116523094Y-88478998D01*
X116592170Y-88468506D01*
X116655955Y-88497024D01*
X116694195Y-88555500D01*
X116699500Y-88591380D01*
X116699500Y-91289902D01*
X116679815Y-91356941D01*
X116663181Y-91377583D01*
X113039481Y-95001282D01*
X113039479Y-95001285D01*
X113028241Y-95020751D01*
X112994464Y-95079256D01*
X112994458Y-95079266D01*
X112994456Y-95079268D01*
X112960425Y-95138209D01*
X112960423Y-95138212D01*
X112945355Y-95194449D01*
X112919499Y-95290943D01*
X112919499Y-95290945D01*
X112919499Y-95459046D01*
X112919500Y-95459059D01*
X112919500Y-103808306D01*
X112899815Y-103875345D01*
X112866623Y-103909881D01*
X112680859Y-104039953D01*
X112519954Y-104200858D01*
X112389432Y-104387265D01*
X112389431Y-104387267D01*
X112293261Y-104593502D01*
X112293258Y-104593511D01*
X112234366Y-104813302D01*
X112234364Y-104813312D01*
X112219500Y-104983214D01*
X112219500Y-106696785D01*
X112234364Y-106866687D01*
X112234366Y-106866697D01*
X112266978Y-106988407D01*
X112265315Y-107058257D01*
X112226152Y-107116119D01*
X112161924Y-107143623D01*
X112147203Y-107144500D01*
X109812797Y-107144500D01*
X109745758Y-107124815D01*
X109700003Y-107072011D01*
X109690059Y-107002853D01*
X109693022Y-106988407D01*
X109710000Y-106925042D01*
X109725635Y-106866692D01*
X109740500Y-106696784D01*
X109740500Y-104983216D01*
X109725635Y-104813308D01*
X109667834Y-104597590D01*
X109666741Y-104593511D01*
X109666738Y-104593502D01*
X109665348Y-104590521D01*
X109570568Y-104387266D01*
X109440047Y-104200861D01*
X109440045Y-104200858D01*
X109279141Y-104039954D01*
X109092734Y-103909432D01*
X109092732Y-103909431D01*
X108886497Y-103813261D01*
X108886488Y-103813258D01*
X108666697Y-103754366D01*
X108666687Y-103754364D01*
X108496785Y-103739500D01*
X108496784Y-103739500D01*
X108383216Y-103739500D01*
X108383215Y-103739500D01*
X108213312Y-103754364D01*
X108213302Y-103754366D01*
X107993511Y-103813258D01*
X107993502Y-103813261D01*
X107787267Y-103909431D01*
X107787265Y-103909432D01*
X107600858Y-104039954D01*
X107439954Y-104200858D01*
X107309432Y-104387265D01*
X107309431Y-104387267D01*
X107282382Y-104445275D01*
X107236209Y-104497714D01*
X107169016Y-104516866D01*
X107102135Y-104496650D01*
X107057618Y-104445275D01*
X107033475Y-104393501D01*
X107030568Y-104387266D01*
X106900047Y-104200861D01*
X106900045Y-104200858D01*
X106739141Y-104039954D01*
X106552734Y-103909432D01*
X106552732Y-103909431D01*
X106346497Y-103813261D01*
X106346488Y-103813258D01*
X106126697Y-103754366D01*
X106126687Y-103754364D01*
X105956785Y-103739500D01*
X105956784Y-103739500D01*
X105843216Y-103739500D01*
X105843215Y-103739500D01*
X105673312Y-103754364D01*
X105673302Y-103754366D01*
X105453511Y-103813258D01*
X105453502Y-103813261D01*
X105247267Y-103909431D01*
X105247265Y-103909432D01*
X105060858Y-104039954D01*
X104899954Y-104200858D01*
X104769432Y-104387265D01*
X104769431Y-104387267D01*
X104742382Y-104445275D01*
X104696209Y-104497714D01*
X104629016Y-104516866D01*
X104562135Y-104496650D01*
X104517618Y-104445275D01*
X104493475Y-104393501D01*
X104490568Y-104387266D01*
X104360047Y-104200861D01*
X104360045Y-104200858D01*
X104199141Y-104039954D01*
X104012734Y-103909432D01*
X104012732Y-103909431D01*
X103806497Y-103813261D01*
X103806488Y-103813258D01*
X103586697Y-103754366D01*
X103586687Y-103754364D01*
X103416785Y-103739500D01*
X103416784Y-103739500D01*
X103303216Y-103739500D01*
X103303215Y-103739500D01*
X103133312Y-103754364D01*
X103133302Y-103754366D01*
X102913511Y-103813258D01*
X102913502Y-103813261D01*
X102707267Y-103909431D01*
X102707265Y-103909432D01*
X102520858Y-104039954D01*
X102359954Y-104200858D01*
X102229432Y-104387265D01*
X102229431Y-104387267D01*
X102202382Y-104445275D01*
X102156209Y-104497714D01*
X102089016Y-104516866D01*
X102022135Y-104496650D01*
X101977618Y-104445275D01*
X101953475Y-104393501D01*
X101950568Y-104387266D01*
X101820047Y-104200861D01*
X101820045Y-104200858D01*
X101659141Y-104039954D01*
X101472734Y-103909432D01*
X101472732Y-103909431D01*
X101266497Y-103813261D01*
X101266488Y-103813258D01*
X101046697Y-103754366D01*
X101046687Y-103754364D01*
X100876785Y-103739500D01*
X100876784Y-103739500D01*
X100763216Y-103739500D01*
X100763215Y-103739500D01*
X100593312Y-103754364D01*
X100593302Y-103754366D01*
X100373511Y-103813258D01*
X100373502Y-103813261D01*
X100167267Y-103909431D01*
X100167265Y-103909432D01*
X99980858Y-104039954D01*
X99819954Y-104200858D01*
X99689432Y-104387265D01*
X99689431Y-104387267D01*
X99593261Y-104593502D01*
X99593258Y-104593511D01*
X99534366Y-104813302D01*
X99534364Y-104813312D01*
X99519500Y-104983214D01*
X99519500Y-106696785D01*
X99534364Y-106866687D01*
X99534366Y-106866697D01*
X99566978Y-106988407D01*
X99565315Y-107058257D01*
X99526152Y-107116119D01*
X99461924Y-107143623D01*
X99447203Y-107144500D01*
X97112797Y-107144500D01*
X97045758Y-107124815D01*
X97000003Y-107072011D01*
X96990059Y-107002853D01*
X96993022Y-106988407D01*
X97010000Y-106925042D01*
X97025635Y-106866692D01*
X97040500Y-106696784D01*
X97040500Y-104983216D01*
X97025635Y-104813308D01*
X96967834Y-104597590D01*
X96966741Y-104593511D01*
X96966738Y-104593502D01*
X96965348Y-104590521D01*
X96870568Y-104387266D01*
X96740047Y-104200861D01*
X96740045Y-104200858D01*
X96579140Y-104039953D01*
X96393377Y-103909881D01*
X96349752Y-103855304D01*
X96340500Y-103808306D01*
X96340500Y-103088625D01*
X96360185Y-103021586D01*
X96376814Y-103000949D01*
X104677763Y-94699999D01*
X108680000Y-94699999D01*
X108680000Y-95600000D01*
X108682138Y-95665542D01*
X108716068Y-95792166D01*
X108781610Y-95905693D01*
X108781612Y-95905695D01*
X108874306Y-95998389D01*
X108987833Y-96063932D01*
X109114455Y-96097861D01*
X109180000Y-96100000D01*
X110080000Y-96100000D01*
X110145545Y-96097861D01*
X110272167Y-96063932D01*
X110385694Y-95998388D01*
X110478388Y-95905694D01*
X110543932Y-95792166D01*
X110577861Y-95665545D01*
X110580000Y-95600000D01*
X110580000Y-95150000D01*
X110580000Y-94700000D01*
X110577861Y-94634455D01*
X110543934Y-94507833D01*
X110543934Y-94507832D01*
X110543934Y-94507831D01*
X110478391Y-94394312D01*
X110478388Y-94394306D01*
X110385694Y-94301612D01*
X110272168Y-94236067D01*
X110145545Y-94202139D01*
X110080000Y-94200000D01*
X109180000Y-94200000D01*
X109114455Y-94202139D01*
X108987833Y-94236067D01*
X108987831Y-94236067D01*
X108987831Y-94236068D01*
X108874306Y-94301612D01*
X108874303Y-94301614D01*
X108781614Y-94394303D01*
X108781612Y-94394306D01*
X108725909Y-94490787D01*
X108716067Y-94507833D01*
X108689565Y-94606740D01*
X108682139Y-94634455D01*
X108680000Y-94699999D01*
X104677763Y-94699999D01*
X105158506Y-94219256D01*
X105158511Y-94219253D01*
X105168714Y-94209049D01*
X105168716Y-94209049D01*
X105280520Y-94097245D01*
X105304046Y-94056497D01*
X105331057Y-94009713D01*
X105331057Y-94009712D01*
X105341495Y-93991630D01*
X105359577Y-93960314D01*
X105400501Y-93807586D01*
X105400501Y-93649472D01*
X105400501Y-93641877D01*
X105400500Y-93641859D01*
X105400500Y-88634136D01*
X105420185Y-88567097D01*
X105472989Y-88521342D01*
X105542147Y-88511398D01*
X105556582Y-88514358D01*
X105673308Y-88545635D01*
X105843214Y-88560499D01*
X105843215Y-88560500D01*
X105843216Y-88560500D01*
X105956785Y-88560500D01*
X105956785Y-88560499D01*
X106126692Y-88545635D01*
X106346496Y-88486739D01*
X106552734Y-88390568D01*
X106739139Y-88260047D01*
X106900047Y-88099139D01*
X107030568Y-87912734D01*
X107057618Y-87854724D01*
X107103790Y-87802285D01*
X107170983Y-87783133D01*
X107237865Y-87803348D01*
X107282382Y-87854725D01*
X107309429Y-87912728D01*
X107309432Y-87912734D01*
X107439954Y-88099141D01*
X107600858Y-88260045D01*
X107600861Y-88260047D01*
X107787266Y-88390568D01*
X107993504Y-88486739D01*
X107993509Y-88486740D01*
X107993511Y-88486741D01*
X108030205Y-88496573D01*
X108213308Y-88545635D01*
X108383214Y-88560499D01*
X108383215Y-88560500D01*
X108383216Y-88560500D01*
X108496785Y-88560500D01*
X108496785Y-88560499D01*
X108666692Y-88545635D01*
X108886496Y-88486739D01*
X109092734Y-88390568D01*
X109279139Y-88260047D01*
X109440047Y-88099139D01*
X109486250Y-88033153D01*
X109540823Y-87989530D01*
X109610321Y-87982336D01*
X109672677Y-88013857D01*
X109707970Y-88073609D01*
X109712975Y-88093216D01*
X109712980Y-88093233D01*
X109743419Y-88166719D01*
X109743431Y-88166747D01*
X109766779Y-88215548D01*
X109766782Y-88215553D01*
X109809893Y-88273142D01*
X109853006Y-88330733D01*
X109853010Y-88330737D01*
X109853015Y-88330743D01*
X109909252Y-88386980D01*
X109909261Y-88386988D01*
X109909267Y-88386994D01*
X109941000Y-88415499D01*
X109949524Y-88423156D01*
X109949532Y-88423162D01*
X110073263Y-88496573D01*
X110073262Y-88496573D01*
X110081309Y-88499906D01*
X110146774Y-88527022D01*
X110197802Y-88545024D01*
X110340218Y-88565500D01*
X110340221Y-88565500D01*
X111619784Y-88565500D01*
X111658926Y-88563402D01*
X111673815Y-88562604D01*
X111813226Y-88527022D01*
X111886735Y-88496574D01*
X111935551Y-88473219D01*
X112050733Y-88386994D01*
X112106994Y-88330733D01*
X112143157Y-88290475D01*
X112146355Y-88285086D01*
X112187612Y-88215548D01*
X112216574Y-88166735D01*
X112247022Y-88093226D01*
X112256859Y-88065339D01*
X112297724Y-88008668D01*
X112362742Y-87983086D01*
X112431269Y-87996716D01*
X112475371Y-88035469D01*
X112519954Y-88099141D01*
X112680858Y-88260045D01*
X112680861Y-88260047D01*
X112867266Y-88390568D01*
X113073504Y-88486739D01*
X113073509Y-88486740D01*
X113073511Y-88486741D01*
X113110205Y-88496573D01*
X113293308Y-88545635D01*
X113463214Y-88560499D01*
X113463215Y-88560500D01*
X113463216Y-88560500D01*
X113576785Y-88560500D01*
X113576785Y-88560499D01*
X113746692Y-88545635D01*
X113966496Y-88486739D01*
X114172734Y-88390568D01*
X114359139Y-88260047D01*
X114520047Y-88099139D01*
X114650568Y-87912734D01*
X114677618Y-87854724D01*
X114688761Y-87842068D01*
X114695646Y-87826672D01*
X114711372Y-87816388D01*
X114723790Y-87802285D01*
X114740009Y-87797661D01*
X114754123Y-87788433D01*
X114772911Y-87788284D01*
X114790983Y-87783133D01*
X114807127Y-87788012D01*
G37*
%TD.AperFunction*%
%TD*%
M02*
